<?xml version="1.0" standalone="no"?>
<!DOCTYPE svg PUBLIC "-//W3C//DTD SVG 1.1//EN" "http://www.w3.org/Graphics/SVG/1.1/DTD/svg11.dtd" >
<svg>
<metadata>
Created by FontForge 20090914 at Wed Sep 25 08:27:04 2013
 By www-data
Freestyle Script is a trademark of Esselte Pendaflex Corporation in the USA, of Letraset Canada Ltd. in Canada, and of Esselte Letraset Ltd. elsewhere.
</metadata>
<defs>
<font id="FuturaLT" horiz-adv-x="578" >
  <font-face 
    font-family="Futura LT"
    font-weight="400"
    font-stretch="normal"
    units-per-em="1000"
    panose-1="2 0 5 3 0 0 0 0 0 0"
    ascent="800"
    descent="-200"
    x-height="468"
    cap-height="754"
    bbox="-163 -268 1113 1020"
    underline-thickness="75"
    underline-position="-150"
    unicode-range="U+0020-U+FFFD"
  />
<missing-glyph horiz-adv-x="289" 
 />
    <glyph glyph-name=".notdef" unicode="&#xfffd;" horiz-adv-x="289" 
 />
    <glyph glyph-name="space" unicode=" " horiz-adv-x="289" 
 />
    <glyph glyph-name="exclam" unicode="!" horiz-adv-x="321" 
d="M161 100c16 0 29.667 -5.83301 41 -17.5s17 -25.167 17 -40.5c0 -16 -5.66699 -29.667 -17 -41s-25 -17 -41 -17s-29.667 5.66699 -41 17s-17 25 -17 41c0 15.333 5.66699 28.833 17 40.5s25 17.5 41 17.5zM116 174v580h90v-580h-90z" />
    <glyph glyph-name="quotedbl" unicode="&#x22;" horiz-adv-x="439" 
d="M90 754h98l-18 -328h-62zM251 754h98l-18 -328h-62z" />
    <glyph glyph-name="numbersign" unicode="#" 
d="M217 718h77l-36 -194h124l35 194h79l-35 -194h92v-80h-107l-27 -154h101v-80h-117l-38 -210h-76l37 210h-123l-40 -210h-75l37 210h-100v80h115l27 154h-105v80h119zM245 444l-27 -154h123l27 154h-123z" />
    <glyph glyph-name="dollar" unicode="$" 
d="M333 349l-0.000976562 -271c30.667 6.66699 55.834 23 75.501 49s29.5 55 29.5 87c0 53.333 -35 98.333 -105 135zM282.999 770v89.9961h50v-90c76 -7.33301 133 -46 171 -116l-79 -45c-19.333 36.667 -50 61.334 -92 74.001v-235c60 -26 107.5 -56.833 142.5 -92.5
s52.5 -81.5 52.5 -137.5c0 -54.667 -19.167 -105.5 -57.5 -152.5s-84.166 -74.167 -137.499 -81.5v-95h-50v95c-58 0.666992 -109 21.334 -153 62.001s-70.667 90 -80 148l90 19c8.66699 -44 24 -77.167 46 -99.5s54.333 -36.166 97 -41.499v300l-36 18
c-46.667 24 -82.334 49.333 -107.001 76s-37 62.334 -37 107.001c0 50 17.5 94.333 52.5 133s77.5 60 127.5 64zM282.999 471.996l0.000976562 211c-26.667 -4 -48.834 -15.667 -66.501 -35s-26.5 -42 -26.5 -68c0 -47.333 31 -83.333 93 -108z" />
    <glyph glyph-name="percent" unicode="%" horiz-adv-x="708" 
d="M193 770c48 0 89.333 -16.833 124 -50.5s52 -74.167 52 -121.5s-17.5 -87.666 -52.5 -120.999s-76.167 -50 -123.5 -50s-88.5 16.667 -123.5 50s-52.5 73.666 -52.5 120.999s17.333 87.833 52 121.5s76 50.5 124 50.5zM193 710c-31.333 0 -58.5 -11 -81.5 -33
s-34.5 -48.333 -34.5 -79c0 -30 11.5 -56 34.5 -78s50.167 -33 81.5 -33s58.5 11 81.5 33s34.5 48 34.5 78c0 30.667 -11.5 57 -34.5 79s-50.167 33 -81.5 33zM552 770l45 -26l-440 -760l-46 25zM516 327c48 0 89.333 -16.833 124 -50.5s52 -74.167 52 -121.5
s-17.5 -87.666 -52.5 -120.999s-76.167 -50 -123.5 -50s-88.5 16.667 -123.5 50s-52.5 73.666 -52.5 120.999s17.333 87.833 52 121.5s76 50.5 124 50.5zM516 267c-31.333 0 -58.5 -11 -81.5 -33s-34.5 -48.333 -34.5 -79c0 -30 11.5 -56 34.5 -78s50.167 -33 81.5 -33
s58.5 11 81.5 33s34.5 48 34.5 78c0 30.667 -11.5 57 -34.5 79s-50.167 33 -81.5 33z" />
    <glyph glyph-name="ampersand" unicode="&#x26;" horiz-adv-x="692" 
d="M287 372l-8.99902 -5.99805c-0.666992 -0.666992 -7.33398 -5.33398 -20.001 -14.001l-24 -16.5c-3.33301 -2.33301 -10.5 -7.83301 -21.5 -16.5s-18.667 -15.167 -23 -19.5s-10.5 -10.833 -18.5 -19.5s-13.5 -16.334 -16.5 -23.001s-6 -14.5 -9 -23.5
s-4.5 -17.833 -4.5 -26.5c0 -36 14.333 -68.167 43 -96.5s61 -42.5 97 -42.5c22 0 44.333 5.66699 67 17s41 23 55 35s31 28 51 48zM307.001 490.002l11.999 7.99316l19.5 14.5c10.333 7.66699 17.5 13.334 21.5 17.001s9.83301 9.33398 17.5 17.001
s13.334 14.334 17.001 20.001s7 12.834 10 21.501s4.5 17.334 4.5 26.001c0 26 -8.16699 46.167 -24.5 60.5s-37.5 21.5 -63.5 21.5c-23.333 0 -43.166 -7.5 -59.499 -22.5s-24.5 -34.167 -24.5 -57.5c0 -12 2.66699 -24.167 8 -36.5s10.166 -21.666 14.499 -27.999
s11.833 -16.166 22.5 -29.499zM592 -0.00488281l-82 102.001c-66.667 -78.667 -142 -118 -226 -118c-64 0 -118.5 21 -163.5 63s-67.5 95 -67.5 159c0 43.333 11.167 79.666 33.5 108.999s55.166 59.666 98.499 90.999l47 34c-55.333 58 -83 113 -83 165
c0 50.667 16.333 90.834 49 120.501s74.334 44.5 125.001 44.5c48 0 89 -14.167 123 -42.5s51 -66.5 51 -114.5c0 -20 -3.83301 -39.167 -11.5 -57.5s-19.167 -35.666 -34.5 -51.999s-29.333 -29.833 -42 -40.5s-29 -23.334 -49 -38.001l157 -190l88 102l60 -62l-92 -108
l135 -167h-116z" />
    <glyph glyph-name="quotesingle" unicode="'" horiz-adv-x="277" 
d="M90 754h98l-18 -328h-62z" />
    <glyph glyph-name="parenleft" unicode="(" horiz-adv-x="292" 
d="M161 809l74 -54.999c-57.333 -120 -86 -268.667 -86 -446s28.667 -326 86 -446l-74 -55c-34.667 68.667 -60.667 147.5 -78 236.5s-26 177.167 -26 264.5s8.66699 175.666 26 264.999s43.333 168 78 236z" />
    <glyph glyph-name="parenright" unicode=")" horiz-adv-x="292" 
d="M57 754l74 54.999c34.667 -68 60.667 -146.667 78 -236s26 -177.666 26 -264.999s-8.66699 -175.5 -26 -264.5s-43.333 -167.833 -78 -236.5l-74 55c57.333 120 86 268.667 86 446s-28.667 326 -86 446z" />
    <glyph glyph-name="asterisk" unicode="*" horiz-adv-x="432" 
d="M184 754h69v-95l81 48l35 -59l-85 -50l85 -50l-35 -58l-81 50v-96h-69v97l-87 -49l-34 57l85 49l-84 50l31 57l89 -49v98z" />
    <glyph glyph-name="plus" unicode="+" 
d="M246 512h86v-213h213v-86h-213v-213h-86v213h-213v86h213v213z" />
    <glyph glyph-name="comma" unicode="," horiz-adv-x="289" 
d="M164 119l78 -31l-133 -267l-55 23z" />
    <glyph glyph-name="hyphenminus" unicode="-" horiz-adv-x="332" 
d="M57 358h219v-75h-219v75z" />
    <glyph glyph-name="period" unicode="." horiz-adv-x="289" 
d="M145 100c16 0 29.667 -5.83301 41 -17.5s17 -25.167 17 -40.5c0 -16 -5.66699 -29.667 -17 -41s-25 -17 -41 -17s-29.667 5.66699 -41 17s-17 25 -17 41c0 15.333 5.66699 28.833 17 40.5s25 17.5 41 17.5z" />
    <glyph glyph-name="slash" unicode="/" horiz-adv-x="551" 
d="M448 868l72 -32l-417 -962l-71 32z" />
    <glyph glyph-name="zero" unicode="0" 
d="M289 -16c-37.333 0 -71.168 8.83301 -101.501 26.5s-55.333 40.167 -75 67.5s-36.167 58.666 -49.5 93.999s-22.833 70.166 -28.5 104.499s-8.5 67.833 -8.5 100.5c0 42 4.83301 84.5 14.5 127.5s24.167 85 43.5 126s46.833 74.5 82.5 100.5s76.5 39 122.5 39
s86.833 -13 122.5 -39s63.167 -59.5 82.5 -100.5s33.833 -83 43.5 -126s14.5 -85.5 14.5 -127.5c0 -32.667 -2.83301 -66.167 -8.5 -100.5s-15.167 -69.166 -28.5 -104.499s-29.833 -66.666 -49.5 -93.999s-44.667 -49.833 -75 -67.5s-64.166 -26.5 -101.499 -26.5z
M288.998 690c-32 0 -59.833 -11.167 -83.5 -33.5s-41.667 -50.5 -54 -84.5s-21.333 -67.5 -27 -100.5s-8.5 -64.167 -8.5 -93.5s2.83301 -60.333 8.5 -93s14.667 -66 27 -100s30.333 -62 54 -84s51.5 -33 83.5 -33s59.833 11 83.5 33s41.667 50 54 84s21.333 67.333 27 100
s8.5 63.667 8.5 93s-2.83301 60.5 -8.5 93.5s-14.667 66.5 -27 100.5s-30.333 62.167 -54 84.5s-51.5 33.5 -83.5 33.5z" />
    <glyph glyph-name="one" unicode="1" 
d="M254 668h-131l52 86h169v-754h-90v668z" />
    <glyph glyph-name="two" unicode="2" 
d="M228 86l304.002 0.000976562v-86h-487l330 405c44.667 54.667 67 99.667 67 135c0 39.333 -14.833 73.166 -44.5 101.499s-64.167 42.5 -103.5 42.5c-38 0 -71 -13.5 -99 -40.5s-43.333 -59.5 -46 -97.5h-94c7.33301 68 32.166 122.333 74.499 163s97.166 61 164.499 61
c65.333 0 121.333 -21.5 168 -64.5s70 -96.833 70 -161.5c0 -57.333 -18.667 -109 -56 -155z" />
    <glyph glyph-name="three" unicode="3" 
d="M275 360l0.00195312 78c98.667 0 148 40.333 148 121c0 38 -12.333 69 -37 93s-56 36 -94 36c-34 0 -62 -9.83301 -84 -29.5s-35.667 -45.834 -41 -78.501h-93c8.66699 62 32.167 109.167 70.5 141.5s88.5 48.5 150.5 48.5s113.833 -18.5 155.5 -55.5
s62.5 -86.167 62.5 -147.5c0 -77.333 -32 -134 -96 -170c71.333 -34 107 -96.333 107 -187c0 -68.667 -22.833 -123.5 -68.5 -164.5s-103.167 -61.5 -172.5 -61.5c-61.333 0 -114.333 18.667 -159 56s-68.334 86 -71.001 146h91c4.66699 -36 20.834 -65 48.501 -87
s60.167 -33 97.5 -33c41.333 0 75.666 14.333 102.999 43s41 63.667 41 105c0 47.333 -14.833 84.333 -44.5 111s-67.834 38.334 -114.501 35.001z" />
    <glyph glyph-name="four" unicode="4" 
d="M469 192h86v-82h-86v-110h-90v110h-372l462 676v-594zM379 192v311h-2l-212 -311h214z" />
    <glyph glyph-name="five" unicode="5" 
d="M528 668l-236.999 -0.000976562l-47 -155l53 3c70.667 0 128.667 -26 174 -78s68 -114 68 -186c0 -78.667 -26.833 -143 -80.5 -193s-119.834 -75 -198.501 -75c-47.333 0 -92.166 11.833 -134.499 35.5s-74.166 55.834 -95.499 96.501l70 66
c11.333 -31.333 33.5 -57.833 66.5 -79.5s66.5 -32.5 100.5 -32.5c50.667 0 93.667 18.167 129 54.5s53 79.833 53 130.5c0 48.667 -17.833 90.667 -53.5 126s-77.834 53 -126.501 53c-26.667 0 -52.834 -6 -78.501 -18s-46.5 -28.333 -62.5 -49h-18l116 387h302v-86z" />
    <glyph glyph-name="six" unicode="6" 
d="M379 770l68.001 -45.999l-201 -272l2 -2c24 12 48.667 18 74 18c60.667 0 112.167 -23.833 154.5 -71.5s63.5 -102.5 63.5 -164.5c0 -68.667 -24.333 -127.167 -73 -175.5s-107.334 -72.5 -176.001 -72.5c-66 0 -124.333 23.833 -175 71.5s-76 104.167 -76 169.5
c0 59.333 27.333 125.666 82 198.999zM290.001 68.001c42.667 0 80 15.333 112 46s48 66.667 48 108c0 45.333 -16.333 83.666 -49 114.999s-69.667 47 -111 47s-78.333 -16 -111 -48s-49 -68.333 -49 -109c0 -43.333 15.833 -80.666 47.5 -111.999s69.167 -47 112.5 -47z
" />
    <glyph glyph-name="seven" unicode="7" 
d="M437 668h-390v86h543l-470 -770l-73 45z" />
    <glyph glyph-name="eight" unicode="8" 
d="M289 352c-38.667 0 -72.667 -13.833 -102 -41.5s-44 -61.167 -44 -100.5c0 -37.333 15 -70.333 45 -99s63.667 -43 101 -43s71 14.333 101 43s45 61.667 45 99c0 39.333 -14.667 72.833 -44 100.5s-63.333 41.5 -102 41.5zM53 210c0 42 10.3311 79.333 30.998 112
s50 55.667 88 69c-66 37.333 -99 93.666 -99 168.999c0 60.667 20.833 110.834 62.5 150.501s92.834 59.5 153.501 59.5s111.834 -19.833 153.501 -59.5s62.5 -89.834 62.5 -150.501c0 -75.333 -33 -131.666 -99 -168.999c38 -13.333 67.333 -36.333 88 -69s31 -70 31 -112
c0 -68 -22.833 -122.667 -68.5 -164s-101.5 -62 -167.5 -62s-121.833 20.667 -167.5 62s-68.5 96 -68.5 164zM288.998 690c-34 0 -63.833 -12.667 -89.5 -38s-38.5 -56 -38.5 -92c0 -30 13.5 -58.833 40.5 -86.5s56.167 -41.5 87.5 -41.5s60.5 13.833 87.5 41.5
s40.5 56.5 40.5 86.5c0 36 -12.833 66.667 -38.5 92s-55.5 38 -89.5 38z" />
    <glyph glyph-name="nine" unicode="9" 
d="M213 -16l-68.002 46.999l201 271l-2 2c-18.667 -9.33301 -43 -14 -73 -14c-61.333 0 -113.166 23.333 -155.499 70s-63.5 100.667 -63.5 162c0 68.667 24.333 127.167 73 175.5s107.334 72.5 176.001 72.5c66 0 124.333 -23.833 175 -71.5s76 -104.167 76 -169.5
c0 -59.333 -27.333 -125.666 -82 -198.999zM301.998 369.999c46.667 0 85 15.667 115 47s45 68.333 45 111c0 40.667 -15.5 77.167 -46.5 109.5s-66.833 48.5 -107.5 48.5c-45.333 0 -84.333 -15.667 -117 -47s-49 -68.333 -49 -111c0 -43.333 16.5 -80.5 49.5 -111.5
s69.833 -46.5 110.5 -46.5z" />
    <glyph glyph-name="colon" unicode=":" horiz-adv-x="289" 
d="M145 100c16 0 29.667 -5.83301 41 -17.5s17 -25.167 17 -40.5c0 -16 -5.66699 -29.667 -17 -41s-25 -17 -41 -17s-29.667 5.66699 -41 17s-17 25 -17 41c0 15.333 5.66699 28.833 17 40.5s25 17.5 41 17.5zM145 482c16 0 29.667 -5.83301 41 -17.5s17 -25.167 17 -40.5
c0 -16 -5.66699 -29.667 -17 -41s-25 -17 -41 -17s-29.667 5.66699 -41 17s-17 25 -17 41c0 15.333 5.66699 28.833 17 40.5s25 17.5 41 17.5z" />
    <glyph glyph-name="semicolon" unicode=";" horiz-adv-x="289" 
d="M156 119l78 -31l-133 -267l-55 23zM192 482c16 0 29.667 -5.83301 41 -17.5s17 -25.167 17 -40.5c0 -16 -5.66699 -29.667 -17 -41s-25 -17 -41 -17s-29.667 5.66699 -41 17s-17 25 -17 41c0 15.333 5.66699 28.833 17 40.5s25 17.5 41 17.5z" />
    <glyph glyph-name="less" unicode="&#x3c;" 
d="M545 498v-94l-384 -148l384 -148v-94l-512 207v70z" />
    <glyph glyph-name="equal" unicode="=" 
d="M33 385h512v-86h-512v86zM33 213h512v-86h-512v86z" />
    <glyph glyph-name="greater" unicode="&#x3e;" 
d="M33 404v94l512 -207v-70l-512 -207v94l384 148z" />
    <glyph glyph-name="question" unicode="?" horiz-adv-x="453" 
d="M300 345l90.999 0.000976562c2 -42.667 -13.667 -80.167 -47 -112.5s-71.666 -48.5 -114.999 -48.5c-44.667 0 -82.667 15.5 -114 46.5s-47 68.833 -47 113.5c0 42.667 11 74.167 33 94.5s53 37.833 93 52.5c3.33301 1.33301 10 3.83301 20 7.5s17 6.16699 21 7.5
s10.333 3.83301 19 7.5s14.667 6.66699 18 9l15 10c6.66699 4.33301 11.334 8.5 14.001 12.5l9 14c3.33301 5.33301 5.66602 11 6.99902 17s2 12.667 2 20c0 27.333 -8.66699 49 -26 65s-39.333 24 -66 24c-23.333 0 -43.5 -8.5 -60.5 -25.5s-25.5 -37.167 -25.5 -60.5
c0 -6.66699 2 -17.334 6 -32.001h-94l-2 33c-2.66699 47.333 14.333 87.5 51 120.5s79.334 49.5 128.001 49.5c50.667 0 93.334 -17 128.001 -51s52 -76 52 -126c0 -52 -18 -93.333 -54 -124c-20.667 -18 -62 -36.667 -124 -56c-48.667 -14.667 -73 -39 -73 -73
c0 -20 6.66699 -37 20 -51s30 -21 50 -21c21.333 0 38.666 7.5 51.999 22.5s19.666 33.167 18.999 54.5zM228.999 100.001c16 0 29.667 -5.83301 41 -17.5s17 -25.167 17 -40.5c0 -16 -5.66699 -29.667 -17 -41s-25 -17 -41 -17s-29.667 5.66699 -41 17s-17 25 -17 41
c0 15.333 5.66699 28.833 17 40.5s25 17.5 41 17.5z" />
    <glyph glyph-name="at" unicode="@" horiz-adv-x="800" 
d="M503 372c4.66699 40 -2.33008 71.167 -20.9971 93.5s-45.667 33.5 -81 33.5c-38.667 0 -70.334 -15.667 -95.001 -47s-37 -66.666 -37 -105.999c0 -30.667 9.16699 -57.334 27.5 -80.001s42.5 -34 72.5 -34c41.333 0 72.666 13.167 93.999 39.5
s34.666 59.833 39.999 100.5zM528.003 506l14 62.001h71l-50 -257c-6 -16.667 -8.83301 -35.167 -8.5 -55.5s7.83301 -30.5 22.5 -30.5c24 0 48 20 72 60s36 84 36 132c0 82.667 -25.5 148.834 -76.5 198.501s-115.5 74.5 -193.5 74.5c-84 0 -154.833 -30.5 -212.5 -91.5
s-86.5 -134.833 -86.5 -221.5c0 -90 30.833 -164.667 92.5 -224s136.167 -89 223.5 -89c86 0 148 16 186 48l75 -60c-42.667 -22.667 -83.334 -39.667 -122.001 -51s-87.667 -17 -147 -17c-108.667 0 -200.5 37.333 -275.5 112s-112.5 168.334 -112.5 281.001
c0 111.333 36.833 204.666 110.5 279.999s164.167 113 271.5 113c92.667 0 171 -29 235 -87c74.667 -64.667 112 -141.334 112 -230.001c0 -87.333 -20.667 -158 -62 -212c-22.667 -30 -47.667 -52.333 -75 -67s-53.666 -21.334 -78.999 -20.001
c-29.333 1.33301 -47.333 22 -54 62c-41.333 -41.333 -86.666 -62 -135.999 -62c-44.667 0 -83.834 18.167 -117.501 54.5s-50.5 79.833 -50.5 130.5c0 63.333 19 118.833 57 166.5s87 71.5 147 71.5c52 0 96.333 -23.667 133 -71z" />
    <glyph glyph-name="A" unicode="A" horiz-adv-x="703" 
d="M525 189h-346l-86 -189h-101l360 786l360 -786h-101zM486 275l-134 305l-134 -305h268z" />
    <glyph glyph-name="B" unicode="B" horiz-adv-x="535" 
d="M158 670v-249.999h24c52 0 92 8.66699 120 26s42 50.666 42 99.999c0 48.667 -13.833 81.5 -41.5 98.5s-67.167 25.5 -118.5 25.5h-26zM158 345.001v-261.002h72c118.667 0 178 44.333 178 133c0 25.333 -5.83301 46.833 -17.5 64.5s-27.5 30.834 -47.5 39.501
s-40.333 14.834 -61 18.501s-42.667 5.5 -66 5.5h-58zM64 -0.000976562v754h92c38.667 0 73.334 -3 104.001 -9s59.5 -16.167 86.5 -30.5s48 -35.666 63 -63.999s22.5 -62.833 22.5 -103.5c0 -28.667 -7.33301 -56.834 -22 -84.501s-34.334 -47.167 -59.001 -58.5v-2
c43.333 -8 79.333 -30.5 108 -67.5s43 -78.167 43 -123.5c0 -70.667 -25.333 -123.5 -76 -158.5s-112.667 -52.5 -186 -52.5h-176z" />
    <glyph glyph-name="C" unicode="C" horiz-adv-x="661" 
d="M621 719v-109.001c-55.333 49.333 -121.666 74 -198.999 74c-83.333 0 -153.833 -30.167 -211.5 -90.5s-86.5 -132.833 -86.5 -217.5c0 -83.333 28.5 -155.166 85.5 -215.499s127.167 -90.5 210.5 -90.5c76 0 143 26 201 78v-111c-60 -35.333 -126 -53 -198 -53
c-108 0 -200.5 37.667 -277.5 113s-115.5 167.333 -115.5 276c0 111.333 39 205.333 117 282s172.667 115 284 115c71.333 0 134.666 -17 189.999 -51z" />
    <glyph glyph-name="D" unicode="D" horiz-adv-x="665" 
d="M64 0l-0.000976562 753.999h156c122 0 223 -32.167 303 -96.5s120 -156.5 120 -276.5c0 -123.333 -39.667 -217.666 -119 -282.999s-181.666 -98 -306.999 -98h-153zM157.999 667.999v-582.002h33c50.667 0 96.667 5 138 15s78.833 26 112.5 48s60 52.333 79 91
s28.5 84.334 28.5 137.001c0 53.333 -9.5 99.333 -28.5 138s-45.5 68.834 -79.5 90.501s-71.5 37.5 -112.5 47.5s-86.833 15 -137.5 15h-33z" />
    <glyph glyph-name="E" unicode="E" horiz-adv-x="521" 
d="M72 0v754h405v-86h-311v-211h302v-86h-302v-285h311v-86h-405z" />
    <glyph glyph-name="F" unicode="F" horiz-adv-x="474" 
d="M436 668h-271v-212h262v-86h-262v-370h-94v754h365v-86z" />
    <glyph glyph-name="G" unicode="G" horiz-adv-x="780" 
d="M460 380l299.003 0.00292969v-30c0 -104.667 -33.333 -191.834 -100 -261.501s-152.334 -104.5 -257.001 -104.5s-194.334 38.833 -269.001 116.5s-112 169.167 -112 274.5c0 108.667 38.167 201.667 114.5 279s168.5 116 276.5 116
c59.333 0 116.166 -12.833 170.499 -38.5s99.833 -61.5 136.5 -107.5l-66 -63c-27.333 37.333 -62.333 67.166 -105 89.499s-86.667 33.5 -132 33.5c-84 0 -155.167 -29.833 -213.5 -89.5s-87.5 -131.834 -87.5 -216.501c0 -80.667 28.833 -152.167 86.5 -214.5
s126.5 -93.5 206.5 -93.5c60 0 115.667 22.333 167 67s78 97 80 157h-195v86z" />
    <glyph glyph-name="H" unicode="H" horiz-adv-x="675" 
d="M158 450h359v304h94v-754h-94v362h-359v-362h-94v754h94v-304z" />
    <glyph glyph-name="I" unicode="I" horiz-adv-x="232" 
d="M163 754v-754h-94v754h94z" />
    <glyph glyph-name="J" unicode="J" horiz-adv-x="362" 
d="M209 754l94.002 0.00292969v-479c0 -40.667 -2.5 -76.5 -7.5 -107.5s-14.333 -61.333 -28 -91s-34.667 -52.5 -63 -68.5s-63.5 -24 -105.5 -24s-81.333 11 -118 33l47 80c22 -16.667 47 -25 75 -25c14.667 0 27.834 2.66699 39.501 8s21.167 11.333 28.5 18
s13.666 16.667 18.999 30s9.16602 24.666 11.499 33.999s4.16602 22.666 5.49902 39.999s2 29.666 2 36.999v36v479z" />
    <glyph glyph-name="K" unicode="K" horiz-adv-x="600" 
d="M166 427l320 327h123l-339 -339l345 -415h-127l-284 351l-38 -36v-315h-94v754h94v-327z" />
    <glyph glyph-name="L" unicode="L" horiz-adv-x="385" 
d="M166 754v-668h229v-86h-323v754h94z" />
    <glyph glyph-name="M" unicode="M" horiz-adv-x="851" 
d="M426 -16l-226 514h-2l-88 -498h-97l154 786l259 -594l259 594l154 -786h-97l-88 498h-2z" />
    <glyph glyph-name="N" unicode="N" horiz-adv-x="785" 
d="M63 0v790l566 -593v557h94v-785l-566 593v-562h-94z" />
    <glyph glyph-name="O" unicode="O" horiz-adv-x="828" 
d="M414 770c108 0 200.833 -38.5 278.5 -115.5s116.5 -169.5 116.5 -277.5c0 -111.333 -38.333 -204.666 -115 -279.999s-170 -113 -280 -113s-203.333 37.667 -280 113s-115 168.666 -115 279.999c0 108 38.833 200.5 116.5 277.5s170.5 115.5 278.5 115.5zM414 72
c82 0 152.667 29.5 212 88.5s89 131.167 89 216.5c0 84.667 -28.5 156.667 -85.5 216s-128.833 89 -215.5 89s-158.5 -29.667 -215.5 -89s-85.5 -131.333 -85.5 -216c0 -85.333 29.667 -157.5 89 -216.5s130 -88.5 212 -88.5z" />
    <glyph glyph-name="P" unicode="P" horiz-adv-x="495" 
d="M166 316v-316h-94v754h108c111.333 0 189.833 -18.167 235.5 -54.5s68.5 -90.833 68.5 -163.5c0 -74.667 -24.5 -130 -73.5 -166s-112.5 -54 -190.5 -54h-54zM166 670v-270h30c27.333 0 51.5 1.66699 72.5 5s41.833 9.5 62.5 18.5s36.667 23.167 48 42.5s17 43.333 17 72
c0 28 -6 51.333 -18 70s-29 32.167 -51 40.5s-43.333 14 -64 17s-44.667 4.5 -72 4.5h-25z" />
    <glyph glyph-name="Q" unicode="Q" horiz-adv-x="828" 
d="M808 -16l-113.999 -0.000976562l-65 67c-64.667 -44.667 -136.334 -67 -215.001 -67c-110 0 -203.333 37.667 -280 113s-115 168.666 -115 279.999c0 108 38.833 200.5 116.5 277.5s170.5 115.5 278.5 115.5s200.833 -38.5 278.5 -115.5s116.5 -169.5 116.5 -277.5
c0 -53.333 -10.333 -104.166 -31 -152.499s-49.667 -90.166 -87 -125.499zM508.001 283.999l119 -118c28 24.667 49.667 56.5 65 95.5s23 77.5 23 115.5c0 84.667 -28.5 156.667 -85.5 216s-128.833 89 -215.5 89s-158.5 -29.667 -215.5 -89s-85.5 -131.333 -85.5 -216
c0 -85.333 29.667 -157.5 89 -216.5s130 -88.5 212 -88.5c54.667 0 104.667 14.333 150 43l-173 169h117z" />
    <glyph glyph-name="R" unicode="R" horiz-adv-x="543" 
d="M303 328l237.998 -327.997h-114l-222 319h-39v-319h-94v754h114c28.667 0 51.834 -0.5 69.501 -1.5s39 -4.16699 64 -9.5s46.833 -13.333 65.5 -24c30.667 -18 54.834 -43.333 72.501 -76s26.5 -67.334 26.5 -104.001c0 -54.667 -16.667 -101.834 -50 -141.501
s-77 -62.834 -131 -69.501zM165.998 670.003v-273h30c27.333 0 51.5 1.66699 72.5 5s41.833 9.5 62.5 18.5s36.667 23.167 48 42.5s17 43.333 17 72c0 90 -68.333 135 -205 135h-25z" />
    <glyph glyph-name="S" unicode="S" horiz-adv-x="537" 
d="M482 656l-74.999 -45c-28 47.333 -68.333 71 -121 71c-32 0 -61 -10 -87 -30s-39 -45.667 -39 -77c0 -45.333 35 -81.333 105 -108l54 -21c60 -23.333 106.167 -52.333 138.5 -87s48.5 -81.334 48.5 -140.001c0 -68 -23.167 -124.167 -69.5 -168.5
s-103.5 -66.5 -171.5 -66.5c-60.667 0 -112.667 19.833 -156 59.5s-69 90.167 -77 151.5l95 20c-0.666992 -40.667 13.166 -74.667 41.499 -102s63.166 -41 104.499 -41c40 0 73.167 14.5 99.5 43.5s39.5 63.5 39.5 103.5c0 36.667 -11.5 65.5 -34.5 86.5
s-54.833 39.833 -95.5 56.5l-52 22c-51.333 22 -91.5 47.333 -120.5 76s-43.5 67 -43.5 115c0 58.667 22 105.834 66 141.501s96 53.5 156 53.5c86.667 0 151.334 -38 194.001 -114z" />
    <glyph glyph-name="T" unicode="T" horiz-adv-x="456" 
d="M275 668v-668h-94v668h-179v86h452v-86h-179z" />
    <glyph glyph-name="U" unicode="U" horiz-adv-x="669" 
d="M59 754h94.002v-445c0 -158 60.667 -237 182 -237s182 79 182 237v445h94v-477c0 -85.333 -24.833 -155.5 -74.5 -210.5s-116.834 -82.5 -201.501 -82.5s-151.834 27.5 -201.501 82.5s-74.5 125.167 -74.5 210.5v477z" />
    <glyph glyph-name="V" unicode="V" horiz-adv-x="640" 
d="M96 754l225 -558l224 558h103l-327 -794l-328 794h103z" />
    <glyph glyph-name="W" unicode="W" horiz-adv-x="1027" 
d="M90 754l211 -540l213 556l213 -556l211 540h102l-313 -784l-213 553l-213 -553l-313 784h102z" />
    <glyph glyph-name="X" unicode="X" horiz-adv-x="574" 
d="M237 395l-208 359h107l154 -275l164 275h107l-217 -359l229 -395h-105l-178 309l-185 -309h-105z" />
    <glyph glyph-name="Y" unicode="Y" horiz-adv-x="573" 
d="M240 328l-246 426h108l185 -322l185 322h108l-246 -426v-328h-94v328z" />
    <glyph glyph-name="Z" unicode="Z" horiz-adv-x="552" 
d="M162 86h382v-86h-535l382 668h-328v86h481z" />
    <glyph glyph-name="bracketleft" unicode="[" horiz-adv-x="311" 
d="M153 725v-834h98v-84h-190v1002h190v-84h-98z" />
    <glyph glyph-name="backslash" unicode="\" horiz-adv-x="551" 
d="M31 868h84l404 -868h-84z" />
    <glyph glyph-name="bracketright" unicode="]" horiz-adv-x="311" 
d="M158 -109v834h-98v84h190v-1002h-190v84h98z" />
    <glyph glyph-name="asciicircum" unicode="^" 
d="M33 308l200 446h112l200 -446h-94l-162 362l-163 -362h-93z" />
    <glyph glyph-name="underscore" unicode="_" horiz-adv-x="500" 
d="M500 -113v-75h-500v75h500z" />
    <glyph glyph-name="grave" unicode="`" horiz-adv-x="360" 
d="M76 690l83 44l125 -166l-44 -27z" />
    <glyph glyph-name="a" unicode="a" horiz-adv-x="556" 
d="M264 64c47.333 0 84.5 16.334 111.5 49.001s40.5 73 40.5 121c0 47.333 -13.667 87.166 -41 119.499s-64.333 48.5 -111 48.5c-44.667 0 -80.5 -16.5 -107.5 -49.5s-40.5 -72.5 -40.5 -118.5c0 -46.667 13.333 -86.667 40 -120s62.667 -50 108 -50zM501 468.001v-468h-90
v73h-2c-40 -59.333 -93 -89 -159 -89c-68.667 0 -123.167 24.5 -163.5 73.5s-60.5 108.833 -60.5 179.5c0 66.667 20.333 124.167 61 172.5s94 72.5 160 72.5c67.333 0 121.333 -30.667 162 -92h2v78h90z" />
    <glyph glyph-name="b" unicode="b" horiz-adv-x="556" 
d="M288 64c47.333 0 84.5 16.334 111.5 49.001s40.5 73 40.5 121c0 47.333 -13.667 87.166 -41 119.499s-64.333 48.5 -111 48.5c-44.667 0 -80.5 -16.5 -107.5 -49.5s-40.5 -72.5 -40.5 -118.5c0 -46.667 13.333 -86.667 40 -120s62.667 -50 108 -50zM55 0.000976562
l0.000976562 868h90v-478h2c40.667 61.333 95 92 163 92c65.333 0 118.333 -24.167 159 -72.5s61 -105.833 61 -172.5c0 -70.667 -20 -130.5 -60 -179.5s-94.667 -73.5 -164 -73.5c-32 0 -61.833 8 -89.5 24s-50.834 37.667 -69.501 65h-2v-73h-90z" />
    <glyph glyph-name="c" unicode="c" horiz-adv-x="441" 
d="M406 451l0.000976562 -115.999c-36.667 42 -81.334 63 -134.001 63c-43.333 0 -80.166 -16.333 -110.499 -49s-45.5 -71 -45.5 -115c0 -48 15.167 -87.667 45.5 -119s69.166 -47 116.499 -47c48.667 0 91.334 20.667 128.001 62v-115
c-38.667 -20.667 -81.667 -31 -129 -31c-69.333 0 -128.5 23.667 -177.5 71s-73.5 105.666 -73.5 174.999c0 72 24.5 132 73.5 180s109.833 72 182.5 72c47.333 0 88.666 -10.333 123.999 -31z" />
    <glyph glyph-name="d" unicode="d" horiz-adv-x="556" 
d="M264 64c47.333 0 84.5 16.334 111.5 49.001s40.5 73 40.5 121c0 47.333 -13.667 87.166 -41 119.499s-64.333 48.5 -111 48.5c-44.667 0 -80.5 -16.5 -107.5 -49.5s-40.5 -72.5 -40.5 -118.5c0 -46.667 13.333 -86.667 40 -120s62.667 -50 108 -50zM411 0.000976562
l0.000976562 73h-2c-18.667 -27.333 -41.834 -49 -69.501 -65s-57.5 -24 -89.5 -24c-69.333 0 -124 24.5 -164 73.5s-60 108.833 -60 179.5c0 66.667 20.333 124.167 61 172.5s93.667 72.5 159 72.5c68 0 122.333 -30.667 163 -92h2v478h90v-868h-90z" />
    <glyph glyph-name="e" unicode="e" horiz-adv-x="488" 
d="M473 219l-356.998 -0.00292969c0.666992 -42 14 -78.333 40 -109s59.667 -46 101 -46c32.667 0 59.5 7.5 80.5 22.5s40.833 37.833 59.5 68.5l76 -43c-22 -40 -52.167 -71.333 -90.5 -94s-80.5 -34 -126.5 -34c-70 0 -125.833 23.333 -167.5 70
s-62.5 105.334 -62.5 176.001c0 74.667 19.667 135.334 59 182.001s95.666 70 168.999 70c71.333 0 125.666 -23.167 162.999 -69.5s56 -106.166 56 -179.499v-14zM121.002 286.997h261.999c-5.33301 36 -19.333 64.5 -42 85.5s-51.667 31.5 -87 31.5
c-34.667 0 -64.167 -11 -88.5 -33s-39.166 -50 -44.499 -84z" />
    <glyph glyph-name="f" unicode="f" horiz-adv-x="275" 
d="M294 868l-0.000976562 -90.999c-28.667 12.667 -48.667 19 -60 19c-12 0 -22.333 -3.16699 -31 -9.5s-15 -13.5 -19 -21.5s-7.16699 -18.833 -9.5 -32.5s-3.66602 -24.334 -3.99902 -32.001s-0.5 -18.167 -0.5 -31.5v-201h124v-84h-124v-384h-90v384h-41v84h41v228
c0 122.667 50.333 184 151 184c22 0 43 -4 63 -12z" />
    <glyph glyph-name="g" unicode="g" horiz-adv-x="555" 
d="M263 64c47.333 0 84.5 16.334 111.5 49.001s40.5 73 40.5 121c0 47.333 -13.667 87.166 -41 119.499s-64.333 48.5 -111 48.5c-44.667 0 -80.5 -16.5 -107.5 -49.5s-40.5 -72.5 -40.5 -118.5c0 -46.667 13.333 -86.667 40 -120s62.667 -50 108 -50zM500 468.001v-459.001
c0 -88.667 -16.667 -157 -50 -205s-92.666 -72 -177.999 -72c-66 0 -120 19 -162 57s-63.333 89.667 -64 155h90c0 -41.333 12.833 -73.666 38.5 -96.999s59.5 -35 101.5 -35c51.333 0 86.5 15 105.5 45s28.5 72.333 28.5 127v89h-2
c-18.667 -27.333 -41.834 -49 -69.501 -65s-57.5 -24 -89.5 -24c-69.333 0 -124 24.5 -164 73.5s-60 108.833 -60 179.5c0 66.667 20.333 124.167 61 172.5s93.667 72.5 159 72.5c68.667 0 123 -31.333 163 -94h2v80h90z" />
    <glyph glyph-name="h" unicode="h" horiz-adv-x="523" 
d="M62 868l90 0.00292969v-463h2c13.333 24.667 32.833 43.667 58.5 57s53.167 20 82.5 20c61.333 0 104.333 -18 129 -54s37 -85.667 37 -149v-279h-90v268c0 46 -6.5 79.833 -19.5 101.5s-40.833 32.5 -83.5 32.5c-18.667 0 -35 -2.33301 -49 -7s-25 -12.334 -33 -23.001
s-14.5 -20.834 -19.5 -30.501s-8.5 -23.334 -10.5 -41.001s-3.16699 -31.5 -3.5 -41.5s-0.5 -24.667 -0.5 -44v-215h-90v868z" />
    <glyph glyph-name="i" unicode="i" horiz-adv-x="254" 
d="M172 468v-468h-90v468h90zM127 745c17.333 0 32 -6.16699 44 -18.5s18 -27.166 18 -44.499c0 -16.667 -6 -31 -18 -43s-26.667 -18 -44 -18s-32 6 -44 18s-18 26.333 -18 43c0 17.333 6 32.166 18 44.499s26.667 18.5 44 18.5z" />
    <glyph glyph-name="j" unicode="j" horiz-adv-x="254" 
d="M172 468v-736h-90v736h90zM127 745c17.333 0 32 -6.16699 44 -18.5s18 -27.166 18 -44.499c0 -16.667 -6 -31 -18 -43s-26.667 -18 -44 -18s-32 6 -44 18s-18 26.333 -18 43c0 17.333 6 32.166 18 44.499s26.667 18.5 44 18.5z" />
    <glyph glyph-name="k" unicode="k" horiz-adv-x="462" 
d="M158 868v-576l176 176h119l-200 -194l220 -274h-117l-167 213l-31 -31v-182h-90v868h90z" />
    <glyph glyph-name="l" unicode="l" horiz-adv-x="222" 
d="M156 868v-868h-90v868h90z" />
    <glyph glyph-name="m" unicode="m" horiz-adv-x="767" 
d="M149 468l0.00195312 -58.999h2c13.333 21.333 31.166 38.833 53.499 52.5s45.833 20.5 70.5 20.5c58 0 103 -27.667 135 -83c14.667 25.333 35 45.5 61 60.5s53.667 22.5 83 22.5c103.333 0 155 -67.333 155 -202v-280h-90v265c0 18 -0.833008 33.833 -2.5 47.5
s-5.33398 28 -11.001 43s-14.667 26.5 -27 34.5s-27.833 12 -46.5 12s-34.5 -3.83301 -47.5 -11.5s-23 -17 -30 -28s-12.5 -24.833 -16.5 -41.5s-6.5 -31.667 -7.5 -45s-1.5 -28.666 -1.5 -45.999v-230h-90v248c0 16 -0.333008 29.333 -1 40s-2.5 24 -5.5 40
s-7.33301 28.667 -13 38s-14.167 17.666 -25.5 24.999s-25 11 -41 11c-22.667 0 -41.5 -5.16699 -56.5 -15.5s-25.667 -25 -32 -44s-10.5 -36.833 -12.5 -53.5s-3 -36.334 -3 -59.001v-230h-90v468h90z" />
    <glyph glyph-name="n" unicode="n" horiz-adv-x="523" 
d="M152 468v-62.9971h2c13.333 24.667 32.833 43.667 58.5 57s53.167 20 82.5 20c61.333 0 104.333 -18 129 -54s37 -85.667 37 -149v-279h-90v268c0 46 -6.5 79.833 -19.5 101.5s-40.833 32.5 -83.5 32.5c-18.667 0 -35 -2.33301 -49 -7s-25 -12.334 -33 -23.001
s-14.5 -20.834 -19.5 -30.501s-8.5 -23.334 -10.5 -41.001s-3.16699 -31.5 -3.5 -41.5s-0.5 -24.667 -0.5 -44v-215h-90v468h90z" />
    <glyph glyph-name="o" unicode="o" horiz-adv-x="540" 
d="M270 482c70 0 129.167 -24 177.5 -72s72.5 -107 72.5 -177s-24.167 -129 -72.5 -177s-107.5 -72 -177.5 -72s-129.167 24 -177.5 72s-72.5 107 -72.5 177s24.167 129 72.5 177s107.5 72 177.5 72zM270 396c-44 0 -81.667 -16 -113 -48s-47 -70.333 -47 -115
c0 -44 15.667 -82.167 47 -114.5s69 -48.5 113 -48.5s81.667 16.167 113 48.5s47 70.5 47 114.5c0 44.667 -15.667 83 -47 115s-69 48 -113 48z" />
    <glyph glyph-name="p" unicode="p" horiz-adv-x="556" 
d="M288 64c47.333 0 84.5 16.334 111.5 49.001s40.5 73 40.5 121c0 47.333 -13.667 87.166 -41 119.499s-64.333 48.5 -111 48.5c-44.667 0 -80.5 -16.5 -107.5 -49.5s-40.5 -72.5 -40.5 -118.5c0 -46.667 13.333 -86.667 40 -120s62.667 -50 108 -50zM145 468.001
l0.000976562 -78h2c40.667 61.333 95 92 163 92c65.333 0 118.333 -24.167 159 -72.5s61 -105.833 61 -172.5c0 -70.667 -20 -130.5 -60 -179.5s-94.667 -73.5 -164 -73.5c-32 0 -61.833 8 -89.5 24s-50.834 37.667 -69.501 65h-2v-341h-90v736h90z" />
    <glyph glyph-name="q" unicode="q" horiz-adv-x="556" 
d="M264 64c47.333 0 84.5 16.334 111.5 49.001s40.5 73 40.5 121c0 47.333 -13.667 87.166 -41 119.499s-64.333 48.5 -111 48.5c-44.667 0 -80.5 -16.5 -107.5 -49.5s-40.5 -72.5 -40.5 -118.5c0 -46.667 13.333 -86.667 40 -120s62.667 -50 108 -50zM501 468.001
l0.000976562 -736h-90v341h-2c-18.667 -27.333 -41.834 -49 -69.501 -65s-57.5 -24 -89.5 -24c-69.333 0 -124 24.5 -164 73.5s-60 108.833 -60 179.5c0 66.667 20.333 124.167 61 172.5s93.667 72.5 159 72.5c68 0 122.333 -30.667 163 -92h2v78h90z" />
    <glyph glyph-name="r" unicode="r" horiz-adv-x="351" 
d="M158 468l0.000976562 -75.999h3c11.333 28 28.166 50 50.499 66s48.166 24 77.499 24c25.333 0 50 -7.66699 74 -23l-41 -82c-14.667 12.667 -33 19 -55 19c-23.333 0 -42.666 -4.83301 -57.999 -14.5s-26.5 -23.334 -33.5 -41.001s-11.667 -35 -14 -52
s-3.5 -36.5 -3.5 -58.5v-230h-90v468h90z" />
    <glyph glyph-name="s" unicode="s" horiz-adv-x="384" 
d="M323 400l-73 -38.999c-13.333 27.333 -33.333 41 -60 41c-12.667 0 -24 -4.5 -34 -13.5s-15 -19.833 -15 -32.5c0 -6 0.833008 -11.5 2.5 -16.5s5 -9.66699 10 -14l13 -11.5c3.66699 -3.33301 9.66699 -7.16602 18 -11.499l19.5 -10
c4.66699 -2.33301 12.5 -5.83301 23.5 -10.5s18.5 -8 22.5 -10c33.333 -15.333 59.666 -33 78.999 -53s29 -46.667 29 -80c0 -44 -15.833 -80.833 -47.5 -110.5s-69.5 -44.5 -113.5 -44.5c-35.333 0 -68.166 9.5 -98.499 28.5s-51.5 44.5 -63.5 76.5l77 35
c22 -40 50.333 -60 85 -60c19.333 0 36 6.16699 50 18.5s21 28.166 21 47.499s-11 36.333 -33 51l-88 47c-30.667 16.667 -53.334 33.167 -68.001 49.5s-22 39.166 -22 68.499c0 38 13.5 70.167 40.5 96.5s59.5 39.5 97.5 39.5c58.667 0 101.334 -27.333 128.001 -82z" />
    <glyph glyph-name="t" unicode="t" horiz-adv-x="240" 
d="M165 384v-384h-90v384h-49v84h49v179h90v-179h88v-84h-88z" />
    <glyph glyph-name="u" unicode="u" horiz-adv-x="512" 
d="M58 468h90v-259c0 -43.333 7.83301 -77.666 23.5 -102.999s43.834 -38 84.501 -38s68.834 12.667 84.501 38s23.5 59.666 23.5 102.999v259h90v-269c0 -66.667 -16.333 -119.167 -49 -157.5s-82.334 -57.5 -149.001 -57.5s-116.334 19.167 -149.001 57.5
s-49 90.833 -49 157.5v269z" />
    <glyph glyph-name="v" unicode="v" horiz-adv-x="445" 
d="M88 468l134 -292l135 292h101l-236 -484l-235 484h101z" />
    <glyph glyph-name="w" unicode="w" horiz-adv-x="718" 
d="M86 468l136 -298l138 324l137 -324l136 298h102l-238 -484l-137 313l-138 -313l-238 484h102z" />
    <glyph glyph-name="x" unicode="x" horiz-adv-x="489" 
d="M195 254l-168 214h106l111 -151l121 151h109l-172 -214l201 -254h-105l-154 190l-149 -190h-109z" />
    <glyph glyph-name="y" unicode="y" horiz-adv-x="484" 
d="M201 80l-214 388h105l158 -297l147 297h101l-379 -736h-102z" />
    <glyph glyph-name="z" unicode="z" horiz-adv-x="495" 
d="M177 84h304v-84h-479l317 384h-263v84h438z" />
    <glyph glyph-name="braceleft" unicode="{" horiz-adv-x="334" 
d="M48 271l-0.000976562 73.0029c50 22 75 72.333 75 151v182c0 36.667 9.83301 67.834 29.5 93.501s38.167 38.5 55.5 38.5h78v-84h-40c-10 0 -17.333 -3.33301 -22 -10s-7.33398 -13.334 -8.00098 -20.001s-1 -17.334 -1 -32.001v-184c0 -34.667 -6 -65.834 -18 -93.501
s-22.5 -46.167 -31.5 -55.5s-17.833 -17 -26.5 -23c5.33301 -3.33301 11.333 -8.33301 18 -15s14.834 -16.5 24.501 -29.5s17.667 -30.667 24 -53s9.5 -46.833 9.5 -73.5v-184c0 -14.667 0.333008 -25.334 1 -32.001s3.33398 -13.334 8.00098 -20.001s12 -10 22 -10h40v-84
h-78c-17.333 0 -35.833 12.833 -55.5 38.5s-29.5 56.834 -29.5 93.501v182c0 78.667 -25 129 -75 151z" />
    <glyph glyph-name="bar" unicode="|" horiz-adv-x="570" 
d="M328 868v-868h-86v868h86z" />
    <glyph glyph-name="braceright" unicode="}" horiz-adv-x="334" 
d="M286 344l-0.000976562 -73.0029c-50 -22 -75 -72.333 -75 -151v-182c0 -36.667 -9.83301 -67.834 -29.5 -93.501s-38.167 -38.5 -55.5 -38.5h-78v84h40c10 0 17.333 3.33301 22 10s7.33398 13.334 8.00098 20.001s1 17.334 1 32.001v184
c0 26.667 3.16699 51.167 9.5 73.5s14.333 40 24 53s17.834 22.833 24.501 29.5s12.667 11.667 18 15c-8.66699 6 -17.5 13.667 -26.5 23s-19.5 27.833 -31.5 55.5s-18 58.834 -18 93.501v184c0 14.667 -0.333008 25.334 -1 32.001s-3.33398 13.334 -8.00098 20.001
s-12 10 -22 10h-40v84h78c17.333 0 35.833 -12.833 55.5 -38.5s29.5 -56.834 29.5 -93.501v-182c0 -78.667 25 -129 75 -151z" />
    <glyph glyph-name="asciitilde" unicode="~" 
d="M478 334l67 -49.999c-44.667 -81.333 -95.334 -122 -152.001 -122c-26.667 0 -65 17 -115 51l-21 14.5l-21 14.5c-4.66699 3.33301 -10.334 7 -17.001 11s-12.5 6.83301 -17.5 8.5s-9.5 2.5 -13.5 2.5c-16 0 -31 -6.66699 -45 -20s-29.667 -34 -47 -62l-63 45
c14.667 21.333 24.834 35.666 30.501 42.999s15.834 19.166 30.501 35.499s29.5 27.833 44.5 34.5s30.833 10 47.5 10c36.667 0 77.334 -17 122.001 -51c4 -3.33301 10.167 -8.16602 18.5 -14.499l19 -14.5c4.33301 -3.33301 9.5 -7 15.5 -11s11.5 -6.83301 16.5 -8.5
s9.83301 -2.5 14.5 -2.5c16 0 29.167 5.66699 39.5 17s23.5 30.333 39.5 57c3.33301 5.33301 5.66602 9.33301 6.99902 12z" />
    <glyph glyph-name="nbspace" unicode="&#xa0;" horiz-adv-x="289" 
 />
    <glyph glyph-name="exclamdown" unicode="&#xa1;" horiz-adv-x="321" 
d="M161 508c16 0 29.667 -5.83301 41 -17.5s17 -25.167 17 -40.5c0 -16 -5.66699 -29.667 -17 -41s-25 -17 -41 -17s-29.667 5.66699 -41 17s-17 25 -17 41c0 15.333 5.66699 28.833 17 40.5s25 17.5 41 17.5zM116 323h90v-581h-90v581z" />
    <glyph glyph-name="cent" unicode="&#xa2;" 
d="M356 704l-0.000976562 -76.001c49.333 -2.66699 90 -13 122 -31v-115h-2c-31.333 40.667 -71.333 61.667 -120 63v-328c48.667 6.66699 89.334 27.334 122.001 62.001v-117c-33.333 -16 -68.333 -25.333 -105 -28l-17 -1v-85h-48v89
c-60.667 9.33301 -110.5 36.333 -149.5 81s-58.5 97.667 -58.5 159c0 62.667 19.333 117.5 58 164.5s88.667 75.167 150 84.5v78h48zM307.999 219.999v318.998c-34 -4 -62.5 -22.667 -85.5 -56s-34.5 -67.333 -34.5 -102c0 -37.333 11 -71.666 33 -102.999
s51 -50.666 87 -57.999z" />
    <glyph glyph-name="sterling" unicode="&#xa3;" 
d="M90 -16l-79.001 40.001c20.667 36 42.5 63.5 65.5 82.5s52.5 29.167 88.5 30.5c20 66.667 17.333 121.334 -8 164.001h-129v58h100c-38.667 73.333 -58 133.333 -58 180c0 63.333 25.167 117.666 75.5 162.999s107.5 68 171.5 68c70 0 126.667 -21.5 170 -64.5
s66.666 -99.5 69.999 -169.5l-90 -34v28c0 42 -13.833 77.833 -41.5 107.5s-62.5 44.5 -104.5 44.5c-40.667 0 -77.667 -15.833 -111 -47.5s-50 -66.167 -50 -103.5c0 -16 2.66699 -32.667 8 -50s10.833 -31.333 16.5 -42s13.834 -24.834 24.501 -42.501
s18 -30.167 22 -37.5h148v-58h-124c17.333 -56 17.333 -113.333 0 -172l74 -26c4 -1.33301 13.167 -5 27.5 -11s26.666 -10.5 36.999 -13.5s20.166 -4.5 29.499 -4.5c12.667 0 24.834 4.5 36.501 13.5s20.334 17.667 26.001 26s12.5 19.833 20.5 34.5l75 -46
c-15.333 -35.333 -36.166 -63.833 -62.499 -85.5s-57.5 -32.5 -93.5 -32.5c-32 0 -75.667 11 -131 33c-52.667 21.333 -91.334 32 -116.001 32c-41.333 0 -70.666 -21.667 -87.999 -65z" />
    <glyph glyph-name="currency" unicode="&#xa4;" 
d="M589 729l-20.998 -85c-44 26.667 -96.667 40 -158 40c-70.667 0 -125.334 -21.333 -164.001 -64s-63.667 -96 -75 -160h357l-14 -58h-351c-0.666992 -10.667 -1 -19.334 -1 -26.001c0 -15.333 1.33301 -31.333 4 -48h323l-14 -58h-299
c12.667 -56.667 38.167 -104.167 76.5 -142.5s90.166 -57.5 155.499 -57.5c32 0 59.667 3.5 83 10.5s49 20.167 77 39.5v-101c-42.667 -23.333 -95 -35 -157 -35c-87.333 0 -161 24.5 -221 73.5s-97.667 119.833 -113 212.5h-77l14 58h56c-1.33301 24 -2 39 -2 45
c0 8.66699 0.333008 18.334 1 29.001h-68l14 58h60c16.667 100.667 56.167 177.5 118.5 230.5s137.5 79.5 225.5 79.5c26.667 0 56.167 -3.5 88.5 -10.5s59.5 -17.167 81.5 -30.5z" />
    <glyph glyph-name="yen" unicode="&#xa5;" 
d="M336 260v-260h-94v260h-236v58h236v10l-54 94h-182v58h148l-158 274h108l185 -322l185 322h108l-158 -274h148v-58h-181l-55 -94v-10h236v-58h-236z" />
    <glyph glyph-name="brokenbar" unicode="&#xa6;" horiz-adv-x="570" 
d="M328 347v-347h-86v347h86zM328 868v-347h-86v347h86z" />
    <glyph glyph-name="section" unicode="&#xa7;" 
d="M214 335l175.001 -86.999c18 11.333 32.5 26.666 43.5 45.999s16.5 39 16.5 59c0 21.333 -6.5 38.333 -19.5 51s-31.833 25 -56.5 37l-184 93c-18 -11.333 -32.5 -26.666 -43.5 -45.999s-16.5 -39.333 -16.5 -60c0 -12 2.16699 -22.833 6.5 -32.5
s11.666 -18.334 21.999 -26.001s18.833 -13.667 25.5 -18s17 -9.83301 31 -16.5zM310.001 192.001l-140.999 69.002c-22.667 11.333 -39.834 20.5 -51.501 27.5s-24.5 16.833 -38.5 29.5s-24 27 -30 43s-9 35 -9 57c0 60 32 114 96 162c-29.333 33.333 -44 70.333 -44 111
c0 50 19.167 92 57.5 126s82.833 51 133.5 51c53.333 0 99 -15 137 -45s58.667 -71 62 -123h-87c-1.33301 27.333 -13.166 49 -35.499 65s-47.833 24 -76.5 24c-28 0 -51.833 -9.66699 -71.5 -29s-29.5 -43 -29.5 -71c0 -24 7.5 -43.667 22.5 -59s35.833 -29.333 62.5 -42
l133 -67c20.667 -10.667 37 -19.5 49 -26.5s26 -16.667 42 -29s27.833 -26.333 35.5 -42s11.5 -32.834 11.5 -51.501c0 -32.667 -8.16699 -64 -24.5 -94s-37.833 -55 -64.5 -75c35.333 -33.333 53 -74 53 -122c0 -57.333 -21 -103.833 -63 -139.5s-92 -53.5 -150 -53.5
c-66 0 -120.167 19.333 -162.5 58s-63.5 91 -63.5 157v15h89c-1.33301 -41.333 10.667 -76.333 36 -105s58.666 -43 99.999 -43c32.667 0 61.5 10.667 86.5 32s37.5 48.333 37.5 81c0 14 -2.83301 26.667 -8.5 38s-14.5 21.666 -26.5 30.999s-22 16.333 -30 21
s-20.333 11 -37 19z" />
    <glyph glyph-name="dieresis" unicode="&#xa8;" horiz-adv-x="470" 
d="M130 694c16.667 0 30.834 -5.83301 42.501 -17.5s17.5 -25.834 17.5 -42.501s-5.83301 -31 -17.5 -43s-25.834 -18 -42.501 -18c-17.333 0 -31.833 5.83301 -43.5 17.5s-17.5 26.167 -17.5 43.5c0 16.667 6 30.834 18 42.501s26.333 17.5 43 17.5zM341 694
c16.667 0 30.834 -5.83301 42.501 -17.5s17.5 -25.834 17.5 -42.501s-5.83301 -31 -17.5 -43s-25.834 -18 -42.501 -18s-31 5.83301 -43 17.5s-18 26.167 -18 43.5c0 16.667 6 30.834 18 42.501s26.333 17.5 43 17.5z" />
    <glyph glyph-name="copyright" unicode="&#xa9;" horiz-adv-x="800" 
d="M400 -16c-110 0 -203.167 38.167 -279.5 114.5s-114.5 169.166 -114.5 278.499s38.167 202.166 114.5 278.499s169.5 114.5 279.5 114.5s203.167 -38.167 279.5 -114.5s114.5 -169.166 114.5 -278.499s-38.167 -202.166 -114.5 -278.499s-169.5 -114.5 -279.5 -114.5z
M400 706c-90.667 0 -168.334 -31.833 -233.001 -95.5s-97 -141.5 -97 -233.5s32.333 -169.833 97 -233.5s142.334 -95.5 233.001 -95.5s168.334 31.833 233.001 95.5s97 141.5 97 233.5s-32.333 169.833 -97 233.5s-142.334 95.5 -233.001 95.5zM600 458h-61.001
c-6 27.333 -20 48.333 -42 63s-49.667 22 -83 22c-50.667 0 -88.834 -15.833 -114.501 -47.5s-38.5 -69.5 -38.5 -113.5c0 -48 13.667 -87.333 41 -118s65.333 -46 114 -46c68 0 109 29.667 123 89h61c-6 -46 -26.5 -83 -61.5 -111s-75.833 -42 -122.5 -42
c-65.333 0 -118.166 21.667 -158.499 65s-60.5 97 -60.5 161c0 66.667 19.667 121.167 59 163.5s92.333 63.5 159 63.5c47.333 0 87.833 -13.333 121.5 -40s54.834 -63 63.501 -109z" />
    <glyph glyph-name="ordfeminine" unicode="&#xaa;" horiz-adv-x="334" 
d="M167 519c30.667 0 54.8359 9.83203 72.5029 29.499s26.5 43.834 26.5 72.501s-8.83301 52.667 -26.5 72s-41.834 29 -72.501 29c-28.667 0 -51.834 -10 -69.501 -30s-26.5 -43.667 -26.5 -71c0 -28 8.66699 -52 26 -72s40.666 -30 69.999 -30zM322.002 760.999
l-0.000976562 -280h-59v43h-2c-26 -35.333 -60.333 -53 -103 -53c-44.667 0 -80.167 14.667 -106.5 44s-39.5 65.333 -39.5 108c0 40 13.333 74.5 40 103.5s61.334 43.5 104.001 43.5s78 -18.333 106 -55h-1h2v46h59zM322.001 367.999h-310v48h310v-48z" />
    <glyph glyph-name="guillemotleft" unicode="&#xab;" horiz-adv-x="523" 
d="M311 320l149 -191l-56 -41l-182 232l182 240l56 -41zM119 320l149 -191l-56 -41l-182 232l182 240l56 -41z" />
    <glyph glyph-name="logicalnot" unicode="&#xac;" 
d="M459 115v184h-426v86h512v-270h-86z" />
    <glyph glyph-name="registered" unicode="&#xae;" horiz-adv-x="800" 
d="M400 -16c-110 0 -203.167 38.167 -279.5 114.5s-114.5 169.166 -114.5 278.499s38.167 202.166 114.5 278.499s169.5 114.5 279.5 114.5s203.167 -38.167 279.5 -114.5s114.5 -169.166 114.5 -278.499s-38.167 -202.166 -114.5 -278.499s-169.5 -114.5 -279.5 -114.5z
M400 706c-90.667 0 -168.334 -31.833 -233.001 -95.5s-97 -141.5 -97 -233.5s32.333 -169.833 97 -233.5s142.334 -95.5 233.001 -95.5s168.334 31.833 233.001 95.5s97 141.5 97 233.5s-32.333 169.833 -97 233.5s-142.334 95.5 -233.001 95.5zM468 357l112 -204h-73
l-113 204h-82v-204h-64v442h186c101.333 0 152 -39 152 -117c0 -40 -11.333 -69.833 -34 -89.5s-50.667 -30.167 -84 -31.5zM422 531l-110.002 -0.000976562v-110h68c4.66699 0 13.5 -0.166992 26.5 -0.5s22.5 -0.333008 28.5 0s14.5 0.833008 25.5 1.5s19.333 2 25 4
s11.834 4.83301 18.501 8.5s11.334 8.66699 14.001 15s4 13.5 4 21.5c0 13.333 -2.5 24.333 -7.5 33s-12.667 14.834 -23 18.501s-20.5 6 -30.5 7s-23 1.5 -39 1.5z" />
    <glyph glyph-name="macron" unicode="&#xaf;" horiz-adv-x="500" 
d="M70 694h361v-68h-361v68z" />
    <glyph glyph-name="degree" unicode="&#xb0;" horiz-adv-x="400" 
d="M350 620c0 -41.333 -14.668 -76.666 -44.001 -105.999s-64.666 -44 -105.999 -44s-76.666 14.667 -105.999 44s-44 64.666 -44 105.999c-0.666992 41.333 13.833 76.666 43.5 105.999s65.167 44 106.5 44s76.666 -14.667 105.999 -44s44 -64.666 44 -105.999z
M198.999 720c-28 0 -51.668 -9.66699 -71.001 -29s-28.666 -43 -27.999 -71c0 -28.667 9.5 -52.5 28.5 -71.5s42.833 -28.5 71.5 -28.5c28 0 51.667 9.5 71 28.5s29 42.833 29 71.5c0 28 -9.66699 51.667 -29 71s-43.333 29 -72 29z" />
    <glyph glyph-name="plusminus" unicode="&#xb1;" 
d="M33 0v86h512v-86h-512zM246 562h86v-173h213v-86h-213v-173h-86v173h-213v86h213v173z" />
    <glyph glyph-name="twosuperior" unicode="&#xb2;" horiz-adv-x="346" 
d="M144 360h187.999v-58h-317l215 243c25.333 29.333 38 56.333 38 81c0 22 -9.66699 40.833 -29 56.5s-40 23.5 -62 23.5c-24.667 0 -45.167 -7 -61.5 -21s-25.166 -32.333 -26.499 -55h-67c4.66699 40.667 20.667 73.167 48 97.5s63 36.5 107 36.5
c42 0 78.333 -13 109 -39s46 -58.333 46 -97c0 -36.667 -11 -67.667 -33 -93z" />
    <glyph glyph-name="threesuperior" unicode="&#xb3;" horiz-adv-x="346" 
d="M163 518l-0.00195312 57.999c28.667 0 51.5 5.66699 68.5 17s25.5 28 25.5 50s-8.33301 39 -25 51s-36 18 -58 18c-21.333 0 -39.166 -4.66699 -53.499 -14s-21.5 -23.333 -21.5 -42h-67c6 36.667 21.333 64.834 46 84.501s57.334 29.5 98.001 29.5s75 -11.167 103 -33.5
s42 -51.833 42 -88.5c0 -44.667 -22 -78.667 -66 -102c48.667 -21.333 73 -58.666 73 -111.999c0 -41.333 -15.333 -74.333 -46 -99s-68.667 -37 -114 -37c-39.333 0 -73.5 11.167 -102.5 33.5s-44.5 51.833 -46.5 88.5h64c6.66699 -42.667 36.667 -64 90 -64
c24.667 0 46 7.33301 64 22s27 34 27 58c0 25.333 -9.66699 45.666 -29 60.999s-43.333 22.333 -72 21z" />
    <glyph glyph-name="acute" unicode="&#xb4;" horiz-adv-x="360" 
d="M201 734l83 -44l-164 -149l-44 27z" />
    <glyph glyph-name="paragraph" unicode="&#xb6;" 
d="M538 754l0.00292969 -84h-61v-823h-84v823h-62v-823h-84v436c-57.333 0 -104.833 19 -142.5 57s-58.834 90.333 -63.501 157c-4.66699 63.333 14.166 122 56.499 176s95.166 81 158.499 81h282z" />
    <glyph glyph-name="periodcentered" unicode="&#xb7;" horiz-adv-x="289" 
d="M145 314c16 0 29.667 -5.83301 41 -17.5s17 -25.167 17 -40.5c0 -16 -5.66699 -29.667 -17 -41s-25 -17 -41 -17s-29.667 5.66699 -41 17s-17 25 -17 41c0 15.333 5.66699 28.833 17 40.5s25 17.5 41 17.5z" />
    <glyph glyph-name="cedilla" unicode="&#xb8;" horiz-adv-x="330" 
d="M244 -46l-105 -135l-53 27l87 137z" />
    <glyph glyph-name="onesuperior" unicode="&#xb9;" horiz-adv-x="346" 
d="M151 696h-86l34 58h116v-452h-64v394z" />
    <glyph glyph-name="ordmasculine" unicode="&#xba;" horiz-adv-x="324" 
d="M162 770c45.333 0 83.833 -14.333 115.5 -43s47.5 -64.334 47.5 -107.001c0 -42 -15.833 -77.333 -47.5 -106s-70.167 -43 -115.5 -43s-83.666 14.333 -114.999 43s-47 64 -47 106c0 42.667 15.667 78.334 47 107.001s69.666 43 114.999 43zM162 718
c-28.667 0 -53 -9.5 -73 -28.5s-30 -42.167 -30 -69.5c0 -26 10 -48.667 30 -68s44.333 -29 73 -29s53.167 9.66699 73.5 29s30.5 42 30.5 68c0 27.333 -10.167 50.5 -30.5 69.5s-44.833 28.5 -73.5 28.5zM325 368h-325v48h325v-48z" />
    <glyph glyph-name="guillemotright" unicode="&#xbb;" horiz-adv-x="523" 
d="M63 129l149 191l-149 199l56 41l182 -240l-182 -232zM255 129l149 191l-149 199l56 41l182 -240l-182 -232z" />
    <glyph glyph-name="onequarter" unicode="&#xbc;" horiz-adv-x="867" 
d="M126 696h-86l34 58h116v-452h-64v394zM778 124h49v-58h-49v-66h-64v66h-243l307 407v-349zM714 124v164h-3l-123 -164h126zM631 770l51 -26l-440 -760l-51 28z" />
    <glyph glyph-name="onehalf" unicode="&#xbd;" horiz-adv-x="867" 
d="M126 302v394h-86l34 58h116v-452h-64zM639 58h187.999v-58h-317l215 243c25.333 29.333 38 56.333 38 81c0 22 -9.66699 40.833 -29 56.5s-40 23.5 -62 23.5c-24.667 0 -45.167 -7 -61.5 -21s-25.166 -32.333 -26.499 -55h-67c4.66699 40.667 20.667 73.167 48 97.5
s63 36.5 107 36.5c42 0 78.333 -13 109 -39s46 -58.333 46 -97c0 -36.667 -11 -67.667 -33 -93zM578.999 770l51 -26l-440 -760l-51 28z" />
    <glyph glyph-name="threequarters" unicode="&#xbe;" horiz-adv-x="867" 
d="M778 124h49v-58h-49v-66h-64v66h-243l307 407v-349zM714 124v164h-3l-123 -164h126zM184 518l-0.00195312 57.999c28.667 0 51.5 5.66699 68.5 17s25.5 28 25.5 50s-8.33301 39 -25 51s-36 18 -58 18c-21.333 0 -39.166 -4.66699 -53.499 -14s-21.5 -23.333 -21.5 -42
h-67c6 36.667 21.333 64.834 46 84.501s57.334 29.5 98.001 29.5s75 -11.167 103 -33.5s42 -51.833 42 -88.5c0 -44.667 -22 -78.667 -66 -102c48.667 -21.333 73 -58.666 73 -111.999c0 -41.333 -15.333 -74.333 -46 -99s-68.667 -37 -114 -37
c-39.333 0 -73.5 11.167 -102.5 33.5s-44.5 51.833 -46.5 88.5h64c6.66699 -42.667 36.667 -64 90 -64c24.667 0 46 7.33301 64 22s27 34 27 58c0 25.333 -9.66699 45.666 -29 60.999s-43.333 22.333 -72 21zM686.998 769.999l51 -26l-440 -760l-51 28z" />
    <glyph glyph-name="questiondown" unicode="&#xbf;" horiz-adv-x="453" 
d="M152 157l-90.999 -0.000976562c-2 42.667 13.667 80.167 47 112.5s71.666 48.5 114.999 48.5c44.667 0 82.667 -15.5 114 -46.5s47 -68.833 47 -113.5c0 -42.667 -11 -74.167 -33 -94.5s-53 -37.833 -93 -52.5c-3.33301 -1.33301 -10 -3.83301 -20 -7.5
s-17 -6.16699 -21 -7.5s-10.333 -3.83301 -19 -7.5s-14.667 -6.66699 -18 -9l-15 -10c-6.66699 -4.33301 -11.334 -8.5 -14.001 -12.5l-9 -14c-3.33301 -5.33301 -5.66602 -11 -6.99902 -17s-2 -12.667 -2 -20c0 -27.333 8.66699 -49 26 -65s39.333 -24 66 -24
c23.333 0 43.5 8.5 60.5 25.5s25.5 37.167 25.5 60.5c0 6.66699 -2 17.334 -6 32.001h94l2 -33c2.66699 -47.333 -14.333 -87.5 -51 -120.5s-79.334 -49.5 -128.001 -49.5c-50.667 0 -93.334 17 -128.001 51s-52 76 -52 126c0 52 18 93.333 54 124
c20.667 18 62 36.667 124 56c48.667 14.667 73 39 73 73c0 20 -6.66699 37 -20 51s-30 21 -50 21c-21.333 0 -38.666 -7.5 -51.999 -22.5s-19.666 -33.167 -18.999 -54.5zM223.001 507.999c16 0 29.667 -5.83301 41 -17.5s17 -25.167 17 -40.5
c0 -16 -5.66699 -29.667 -17 -41s-25 -17 -41 -17s-29.667 5.66699 -41 17s-17 25 -17 41c0 15.333 5.66699 28.833 17 40.5s25 17.5 41 17.5z" />
    <glyph glyph-name="Agrave" unicode="&#xc0;" horiz-adv-x="703" 
d="M525 189h-346l-86 -189h-101l360 786l360 -786h-101zM486 275l-134 305l-134 -305h268zM248 976l83 44l125 -166l-44 -27z" />
    <glyph glyph-name="Aacute" unicode="&#xc1;" horiz-adv-x="703" 
d="M525 189h-346l-86 -189h-101l360 786l360 -786h-101zM486 275l-134 305l-134 -305h268zM373 1020l83 -44l-164 -149l-44 27z" />
    <glyph glyph-name="Acircumflex" unicode="&#xc2;" horiz-adv-x="703" 
d="M525 189h-346l-86 -189h-101l360 786l360 -786h-101zM486 275l-134 305l-134 -305h268zM192 875l159 145l161 -145l-59 -46l-102 96l-101 -96z" />
    <glyph glyph-name="Atilde" unicode="&#xc3;" horiz-adv-x="703" 
d="M525 189h-346l-86 -189h-101l360 786l360 -786h-101zM486 275l-134 305l-134 -305h268zM208 859l-47 40l3 5c11.333 16 21 28.667 29 38s19 18 33 26s29.333 12 46 12c27.333 0 57 -8.66699 89 -26c33.333 -18 57.333 -27 72 -27c23.333 0 44.666 16 63.999 48l47 -39
c-26.667 -54.667 -66 -82 -118 -82c-19.333 0 -47 8.66699 -83 26c-36 16.667 -62 25 -78 25c-11.333 0 -22.166 -4.66699 -32.499 -14s-18.5 -20 -24.5 -32z" />
    <glyph glyph-name="Adieresis" unicode="&#xc4;" horiz-adv-x="703" 
d="M525 189h-346l-86 -189h-101l360 786l360 -786h-101zM486 275l-134 305l-134 -305h268zM247 980c16.667 0 30.834 -5.83301 42.501 -17.5s17.5 -25.834 17.5 -42.501s-5.83301 -31 -17.5 -43s-25.834 -18 -42.501 -18s-31 5.83301 -43 17.5s-18 26.167 -18 43.5
c0 16.667 6 30.834 18 42.501s26.333 17.5 43 17.5zM458 980c16.667 0 30.834 -5.83301 42.501 -17.5s17.5 -25.834 17.5 -42.501s-5.83301 -31 -17.5 -43s-25.834 -18 -42.501 -18c-17.333 0 -31.833 5.83301 -43.5 17.5s-17.5 26.167 -17.5 43.5
c0 16.667 6 30.834 18 42.501s26.333 17.5 43 17.5z" />
    <glyph glyph-name="Aring" unicode="&#xc5;" horiz-adv-x="703" 
d="M525 189h-346l-86 -189h-101l360 786l360 -786h-101zM486 275l-134 305l-134 -305h268zM352 1020c25.333 0 46.8311 -8.83496 64.498 -26.502s26.5 -39.167 26.5 -64.5s-8.83301 -46.666 -26.5 -63.999s-39.167 -26 -64.5 -26s-46.666 8.83301 -63.999 26.5
s-26 38.834 -26 63.501c0 25.333 8.83301 46.833 26.5 64.5s38.834 26.5 63.501 26.5zM351.998 883.998c12.667 0 23.5 4.33301 32.5 13s13.5 19.334 13.5 32.001s-4.5 23.5 -13.5 32.5s-19.833 13.5 -32.5 13.5c-12 0 -22.5 -4.5 -31.5 -13.5s-13.5 -19.833 -13.5 -32.5
s4.5 -23.334 13.5 -32.001s19.5 -13 31.5 -13z" />
    <glyph glyph-name="AE" unicode="&#xc6;" horiz-adv-x="997" 
d="M532 189h-343l-86 -189h-103l362 754h330l38 -86h-309l91 -211h301l40 -86h-302l121 -285h311l38 -86h-406zM497 275l-130 292l-138 -292h268z" />
    <glyph glyph-name="Ccedilla" unicode="&#xc7;" horiz-adv-x="661" 
d="M621 719v-109.001c-55.333 49.333 -121.666 74 -198.999 74c-83.333 0 -153.833 -30.167 -211.5 -90.5s-86.5 -132.833 -86.5 -217.5c0 -83.333 28.5 -155.166 85.5 -215.499s127.167 -90.5 210.5 -90.5c76 0 143 26 201 78v-111c-60 -35.333 -126 -53 -198 -53
c-108 0 -200.5 37.667 -277.5 113s-115.5 167.333 -115.5 276c0 111.333 39 205.333 117 282s172.667 115 284 115c71.333 0 134.666 -17 189.999 -51zM410 -46.001l-105 -135l-53 27l87 137z" />
    <glyph glyph-name="Egrave" unicode="&#xc8;" horiz-adv-x="521" 
d="M72 0v754h405v-86h-311v-211h302v-86h-302v-285h311v-86h-405zM157 976l83 44l125 -166l-44 -27z" />
    <glyph glyph-name="Eacute" unicode="&#xc9;" horiz-adv-x="521" 
d="M72 0v754h405v-86h-311v-211h302v-86h-302v-285h311v-86h-405zM294 1020l83 -44l-164 -149l-44 27z" />
    <glyph glyph-name="Ecircumflex" unicode="&#xca;" horiz-adv-x="521" 
d="M72 0v754h405v-86h-311v-211h302v-86h-302v-285h311v-86h-405zM101 875l159 145l161 -145l-59 -46l-102 96l-101 -96z" />
    <glyph glyph-name="Edieresis" unicode="&#xcb;" horiz-adv-x="521" 
d="M72 0v754h405v-86h-311v-211h302v-86h-302v-285h311v-86h-405zM168 980c16.667 0 30.834 -5.83301 42.501 -17.5s17.5 -25.834 17.5 -42.501s-5.83301 -31 -17.5 -43s-25.834 -18 -42.501 -18c-17.333 0 -31.833 5.83301 -43.5 17.5s-17.5 26.167 -17.5 43.5
c0 16.667 6 30.834 18 42.501s26.333 17.5 43 17.5zM379 980c16.667 0 30.834 -5.83301 42.501 -17.5s17.5 -25.834 17.5 -42.501s-5.83301 -31 -17.5 -43s-25.834 -18 -42.501 -18s-31 5.83301 -43 17.5s-18 26.167 -18 43.5c0 16.667 6 30.834 18 42.501
s26.333 17.5 43 17.5z" />
    <glyph glyph-name="Igrave" unicode="&#xcc;" horiz-adv-x="232" 
d="M163 754v-754h-94v754h94zM12 976l83 44l125 -166l-44 -27z" />
    <glyph glyph-name="Iacute" unicode="&#xcd;" horiz-adv-x="232" 
d="M163 754v-754h-94v754h94zM137 1020l83 -44l-164 -149l-44 27z" />
    <glyph glyph-name="Icircumflex" unicode="&#xce;" horiz-adv-x="232" 
d="M163 754v-754h-94v754h94zM-44 875l159 145l161 -145l-59 -46l-102 96l-101 -96z" />
    <glyph glyph-name="Idieresis" unicode="&#xcf;" horiz-adv-x="232" 
d="M163 754v-754h-94v754h94zM11 980c16.667 0 30.834 -5.83301 42.501 -17.5s17.5 -25.834 17.5 -42.501s-5.83301 -31 -17.5 -43s-25.834 -18 -42.501 -18s-31 5.83301 -43 17.5s-18 26.167 -18 43.5c0 16.667 6 30.834 18 42.501s26.333 17.5 43 17.5zM222 980
c16.667 0 30.834 -5.83301 42.501 -17.5s17.5 -25.834 17.5 -42.501s-5.83301 -31 -17.5 -43s-25.834 -18 -42.501 -18c-17.333 0 -31.833 5.83301 -43.5 17.5s-17.5 26.167 -17.5 43.5c0 16.667 6 30.834 18 42.501s26.333 17.5 43 17.5z" />
    <glyph glyph-name="Eth" unicode="&#xd0;" horiz-adv-x="665" 
d="M64 450l-0.000976562 303.999h156c122 0 223 -32.167 303 -96.5s120 -156.5 120 -276.5c0 -123.333 -39.667 -217.666 -119 -282.999s-181.666 -98 -306.999 -98h-153v362h-64v88h64zM157.999 667.999v-218.002h134v-88h-134v-276h33c50.667 0 96.667 5 138 15
s78.833 26 112.5 48s60 52.333 79 91s28.5 84.334 28.5 137.001c0 53.333 -9.5 99.333 -28.5 138s-45.5 68.834 -79.5 90.501s-71.5 37.5 -112.5 47.5s-86.833 15 -137.5 15h-33z" />
    <glyph glyph-name="Ntilde" unicode="&#xd1;" horiz-adv-x="785" 
d="M63 0v790l566 -593v557h94v-785l-566 593v-562h-94zM249 859l-47 40l3 5c11.333 16 21 28.667 29 38s19 18 33 26s29.333 12 46 12c27.333 0 57 -8.66699 89 -26c33.333 -18 57.333 -27 72 -27c23.333 0 44.666 16 63.999 48l47 -39c-26.667 -54.667 -66 -82 -118 -82
c-19.333 0 -47 8.66699 -83 26c-36 16.667 -62 25 -78 25c-11.333 0 -22.166 -4.66699 -32.499 -14s-18.5 -20 -24.5 -32z" />
    <glyph glyph-name="Ograve" unicode="&#xd2;" horiz-adv-x="828" 
d="M414 770c108 0 200.833 -38.5 278.5 -115.5s116.5 -169.5 116.5 -277.5c0 -111.333 -38.333 -204.666 -115 -279.999s-170 -113 -280 -113s-203.333 37.667 -280 113s-115 168.666 -115 279.999c0 108 38.833 200.5 116.5 277.5s170.5 115.5 278.5 115.5zM414 72
c82 0 152.667 29.5 212 88.5s89 131.167 89 216.5c0 84.667 -28.5 156.667 -85.5 216s-128.833 89 -215.5 89s-158.5 -29.667 -215.5 -89s-85.5 -131.333 -85.5 -216c0 -85.333 29.667 -157.5 89 -216.5s130 -88.5 212 -88.5zM310 976l83 44l125 -166l-44 -27z" />
    <glyph glyph-name="Oacute" unicode="&#xd3;" horiz-adv-x="828" 
d="M414 770c108 0 200.833 -38.5 278.5 -115.5s116.5 -169.5 116.5 -277.5c0 -111.333 -38.333 -204.666 -115 -279.999s-170 -113 -280 -113s-203.333 37.667 -280 113s-115 168.666 -115 279.999c0 108 38.833 200.5 116.5 277.5s170.5 115.5 278.5 115.5zM414 72
c82 0 152.667 29.5 212 88.5s89 131.167 89 216.5c0 84.667 -28.5 156.667 -85.5 216s-128.833 89 -215.5 89s-158.5 -29.667 -215.5 -89s-85.5 -131.333 -85.5 -216c0 -85.333 29.667 -157.5 89 -216.5s130 -88.5 212 -88.5zM435 1020l83 -44l-164 -149l-44 27z" />
    <glyph glyph-name="Ocircumflex" unicode="&#xd4;" horiz-adv-x="828" 
d="M414 770c108 0 200.833 -38.5 278.5 -115.5s116.5 -169.5 116.5 -277.5c0 -111.333 -38.333 -204.666 -115 -279.999s-170 -113 -280 -113s-203.333 37.667 -280 113s-115 168.666 -115 279.999c0 108 38.833 200.5 116.5 277.5s170.5 115.5 278.5 115.5zM414 72
c82 0 152.667 29.5 212 88.5s89 131.167 89 216.5c0 84.667 -28.5 156.667 -85.5 216s-128.833 89 -215.5 89s-158.5 -29.667 -215.5 -89s-85.5 -131.333 -85.5 -216c0 -85.333 29.667 -157.5 89 -216.5s130 -88.5 212 -88.5zM254 875l159 145l161 -145l-59 -46l-102 96
l-101 -96z" />
    <glyph glyph-name="Otilde" unicode="&#xd5;" horiz-adv-x="828" 
d="M414 770c108 0 200.833 -38.5 278.5 -115.5s116.5 -169.5 116.5 -277.5c0 -111.333 -38.333 -204.666 -115 -279.999s-170 -113 -280 -113s-203.333 37.667 -280 113s-115 168.666 -115 279.999c0 108 38.833 200.5 116.5 277.5s170.5 115.5 278.5 115.5zM414 72
c82 0 152.667 29.5 212 88.5s89 131.167 89 216.5c0 84.667 -28.5 156.667 -85.5 216s-128.833 89 -215.5 89s-158.5 -29.667 -215.5 -89s-85.5 -131.333 -85.5 -216c0 -85.333 29.667 -157.5 89 -216.5s130 -88.5 212 -88.5zM270 859l-47 40l3 5c11.333 16 21 28.667 29 38
s19 18 33 26s29.333 12 46 12c27.333 0 57 -8.66699 89 -26c33.333 -18 57.333 -27 72 -27c23.333 0 44.666 16 63.999 48l47 -39c-26.667 -54.667 -66 -82 -118 -82c-19.333 0 -47 8.66699 -83 26c-36 16.667 -62 25 -78 25c-11.333 0 -22.166 -4.66699 -32.499 -14
s-18.5 -20 -24.5 -32z" />
    <glyph glyph-name="Odieresis" unicode="&#xd6;" horiz-adv-x="828" 
d="M414 770c108 0 200.833 -38.5 278.5 -115.5s116.5 -169.5 116.5 -277.5c0 -111.333 -38.333 -204.666 -115 -279.999s-170 -113 -280 -113s-203.333 37.667 -280 113s-115 168.666 -115 279.999c0 108 38.833 200.5 116.5 277.5s170.5 115.5 278.5 115.5zM414 72
c82 0 152.667 29.5 212 88.5s89 131.167 89 216.5c0 84.667 -28.5 156.667 -85.5 216s-128.833 89 -215.5 89s-158.5 -29.667 -215.5 -89s-85.5 -131.333 -85.5 -216c0 -85.333 29.667 -157.5 89 -216.5s130 -88.5 212 -88.5zM309 980
c16.667 0 30.834 -5.83301 42.501 -17.5s17.5 -25.834 17.5 -42.501s-5.83301 -31 -17.5 -43s-25.834 -18 -42.501 -18s-31 5.83301 -43 17.5s-18 26.167 -18 43.5c0 16.667 6 30.834 18 42.501s26.333 17.5 43 17.5zM520 980c16.667 0 30.834 -5.83301 42.501 -17.5
s17.5 -25.834 17.5 -42.501s-5.83301 -31 -17.5 -43s-25.834 -18 -42.501 -18c-17.333 0 -31.833 5.83301 -43.5 17.5s-17.5 26.167 -17.5 43.5c0 16.667 6 30.834 18 42.501s26.333 17.5 43 17.5z" />
    <glyph glyph-name="multiply" unicode="&#xd7;" 
d="M33 451l60 61l196 -195l196 195l60 -61l-195 -195l195 -195l-60 -61l-196 195l-196 -195l-60 61l195 195z" />
    <glyph glyph-name="Oslash" unicode="&#xd8;" horiz-adv-x="828" 
d="M815 729l-99.998 -100.002c62.667 -78 94 -162 94 -252c0 -111.333 -38.333 -204.666 -115 -279.999s-170 -113 -280 -113c-92.667 0 -179.334 31.667 -260.001 95l-100 -100l-41 42l99 99c-62 68.667 -93 154.334 -93 257.001c0 108 38.833 200.5 116.5 277.5
s170.5 115.5 278.5 115.5c47.333 0 94.166 -8.66699 140.499 -26s86.5 -42 120.5 -74l100 100zM178.002 180.998l432 428c-52 50 -117.333 74.333 -196 73c-86.667 0 -158.5 -29.667 -215.5 -89s-85.5 -131.333 -85.5 -216c0 -74 21.667 -139.333 65 -196zM649.002 565.998
l-426.001 -424c48.667 -46.667 112.334 -70 191.001 -70c82 0 152.667 29.5 212 88.5s89 131.167 89 216.5c0 70 -22 133 -66 189z" />
    <glyph glyph-name="Ugrave" unicode="&#xd9;" horiz-adv-x="669" 
d="M59 754h94.002v-445c0 -158 60.667 -237 182 -237s182 79 182 237v445h94v-477c0 -85.333 -24.833 -155.5 -74.5 -210.5s-116.834 -82.5 -201.501 -82.5s-151.834 27.5 -201.501 82.5s-74.5 125.167 -74.5 210.5v477zM219.002 976l83 44l125 -166l-44 -27z" />
    <glyph glyph-name="Uacute" unicode="&#xda;" horiz-adv-x="669" 
d="M59 754h94.002v-445c0 -158 60.667 -237 182 -237s182 79 182 237v445h94v-477c0 -85.333 -24.833 -155.5 -74.5 -210.5s-116.834 -82.5 -201.501 -82.5s-151.834 27.5 -201.501 82.5s-74.5 125.167 -74.5 210.5v477zM356.002 1020l83 -44l-164 -149l-44 27z" />
    <glyph glyph-name="Ucircumflex" unicode="&#xdb;" horiz-adv-x="669" 
d="M59 754h94.002v-445c0 -158 60.667 -237 182 -237s182 79 182 237v445h94v-477c0 -85.333 -24.833 -155.5 -74.5 -210.5s-116.834 -82.5 -201.501 -82.5s-151.834 27.5 -201.501 82.5s-74.5 125.167 -74.5 210.5v477zM175.002 875l159 145l161 -145l-59 -46l-102 96
l-101 -96z" />
    <glyph glyph-name="Udieresis" unicode="&#xdc;" horiz-adv-x="669" 
d="M59 754h94.002v-445c0 -158 60.667 -237 182 -237s182 79 182 237v445h94v-477c0 -85.333 -24.833 -155.5 -74.5 -210.5s-116.834 -82.5 -201.501 -82.5s-151.834 27.5 -201.501 82.5s-74.5 125.167 -74.5 210.5v477zM230.002 980c16.667 0 30.834 -5.83301 42.501 -17.5
s17.5 -25.834 17.5 -42.501s-5.83301 -31 -17.5 -43s-25.834 -18 -42.501 -18c-17.333 0 -31.833 5.83301 -43.5 17.5s-17.5 26.167 -17.5 43.5c0 16.667 6 30.834 18 42.501s26.333 17.5 43 17.5zM441.002 980c16.667 0 30.834 -5.83301 42.501 -17.5
s17.5 -25.834 17.5 -42.501s-5.83301 -31 -17.5 -43s-25.834 -18 -42.501 -18s-31 5.83301 -43 17.5s-18 26.167 -18 43.5c0 16.667 6 30.834 18 42.501s26.333 17.5 43 17.5z" />
    <glyph glyph-name="Yacute" unicode="&#xdd;" horiz-adv-x="573" 
d="M240 328l-246 426h108l185 -322l185 322h108l-246 -426v-328h-94v328zM348 1020l83 -44l-164 -149l-44 27z" />
    <glyph glyph-name="Thorn" unicode="&#xde;" horiz-adv-x="495" 
d="M166 176v-176h-94v754h94v-140h14c111.333 0 189.833 -18.167 235.5 -54.5s68.5 -90.833 68.5 -163.5c0 -74.667 -24.5 -130 -73.5 -166s-112.5 -54 -190.5 -54h-54zM166 530v-270h30c27.333 0 51.5 1.66699 72.5 5s41.833 9.5 62.5 18.5s36.667 23.167 48 42.5
s17 43.333 17 72c0 28 -6 51.333 -18 70s-29 32.167 -51 40.5s-43.333 14 -64 17s-44.667 4.5 -72 4.5h-25z" />
    <glyph glyph-name="germandbls" unicode="&#xdf;" horiz-adv-x="580" 
d="M282 -16l-0.00195312 84.001c52 0 97.5 18.667 136.5 56s58.5 82 58.5 134c0 56 -18.167 99.833 -54.5 131.5s-83.166 49.5 -140.499 53.5v88c38 -0.666992 70 12.5 96 39.5s39 59.833 39 98.5c0 36.667 -12.667 67 -38 91s-56 36 -92 36c-18 0 -34.167 -3 -48.5 -9
s-26 -12.833 -35 -20.5s-16.5 -19.167 -22.5 -34.5s-10.5 -28.166 -13.5 -38.499s-5.33301 -25.833 -7 -46.5s-2.5 -35.167 -2.5 -43.5v-44.5v-559h-90v386h-40v84h40v148c0 174.667 74 262 222 262c62 0 113.667 -20.333 155 -61s62 -92.334 62 -155.001
c0 -74 -32 -129.667 -96 -167c48 -15.333 86 -45.833 114 -91.5s42 -94.834 42 -147.501c0 -78 -28.167 -144 -84.5 -198s-123.166 -79.333 -200.499 -76z" />
    <glyph glyph-name="agrave" unicode="&#xe0;" horiz-adv-x="556" 
d="M264 64c47.333 0 84.5 16.334 111.5 49.001s40.5 73 40.5 121c0 47.333 -13.667 87.166 -41 119.499s-64.333 48.5 -111 48.5c-44.667 0 -80.5 -16.5 -107.5 -49.5s-40.5 -72.5 -40.5 -118.5c0 -46.667 13.333 -86.667 40 -120s62.667 -50 108 -50zM501 468.001v-468h-90
v73h-2c-40 -59.333 -93 -89 -159 -89c-68.667 0 -123.167 24.5 -163.5 73.5s-60.5 108.833 -60.5 179.5c0 66.667 20.333 124.167 61 172.5s94 72.5 160 72.5c67.333 0 121.333 -30.667 162 -92h2v78h90zM174 690.001l83 44l125 -166l-44 -27z" />
    <glyph glyph-name="aacute" unicode="&#xe1;" horiz-adv-x="556" 
d="M264 64c47.333 0 84.5 16.334 111.5 49.001s40.5 73 40.5 121c0 47.333 -13.667 87.166 -41 119.499s-64.333 48.5 -111 48.5c-44.667 0 -80.5 -16.5 -107.5 -49.5s-40.5 -72.5 -40.5 -118.5c0 -46.667 13.333 -86.667 40 -120s62.667 -50 108 -50zM501 468.001v-468h-90
v73h-2c-40 -59.333 -93 -89 -159 -89c-68.667 0 -123.167 24.5 -163.5 73.5s-60.5 108.833 -60.5 179.5c0 66.667 20.333 124.167 61 172.5s94 72.5 160 72.5c67.333 0 121.333 -30.667 162 -92h2v78h90zM299 734.001l83 -44l-164 -149l-44 27z" />
    <glyph glyph-name="acircumflex" unicode="&#xe2;" horiz-adv-x="556" 
d="M264 64c47.333 0 84.5 16.334 111.5 49.001s40.5 73 40.5 121c0 47.333 -13.667 87.166 -41 119.499s-64.333 48.5 -111 48.5c-44.667 0 -80.5 -16.5 -107.5 -49.5s-40.5 -72.5 -40.5 -118.5c0 -46.667 13.333 -86.667 40 -120s62.667 -50 108 -50zM501 468.001v-468h-90
v73h-2c-40 -59.333 -93 -89 -159 -89c-68.667 0 -123.167 24.5 -163.5 73.5s-60.5 108.833 -60.5 179.5c0 66.667 20.333 124.167 61 172.5s94 72.5 160 72.5c67.333 0 121.333 -30.667 162 -92h2v78h90zM118 589.001l159 145l161 -145l-59 -46l-102 96l-101 -96z" />
    <glyph glyph-name="atilde" unicode="&#xe3;" horiz-adv-x="556" 
d="M264 64c47.333 0 84.5 16.334 111.5 49.001s40.5 73 40.5 121c0 47.333 -13.667 87.166 -41 119.499s-64.333 48.5 -111 48.5c-44.667 0 -80.5 -16.5 -107.5 -49.5s-40.5 -72.5 -40.5 -118.5c0 -46.667 13.333 -86.667 40 -120s62.667 -50 108 -50zM501 468.001v-468h-90
v73h-2c-40 -59.333 -93 -89 -159 -89c-68.667 0 -123.167 24.5 -163.5 73.5s-60.5 108.833 -60.5 179.5c0 66.667 20.333 124.167 61 172.5s94 72.5 160 72.5c67.333 0 121.333 -30.667 162 -92h2v78h90zM134 573.001l-47 40l3 5c11.333 16 21 28.667 29 38s19 18 33 26
s29.333 12 46 12c27.333 0 57 -8.66699 89 -26c33.333 -18 57.333 -27 72 -27c23.333 0 44.666 16 63.999 48l47 -39c-26.667 -54.667 -66 -82 -118 -82c-19.333 0 -47 8.66699 -83 26c-36 16.667 -62 25 -78 25c-11.333 0 -22.166 -4.66699 -32.499 -14
s-18.5 -20 -24.5 -32z" />
    <glyph glyph-name="adieresis" unicode="&#xe4;" horiz-adv-x="556" 
d="M264 64c47.333 0 84.5 16.334 111.5 49.001s40.5 73 40.5 121c0 47.333 -13.667 87.166 -41 119.499s-64.333 48.5 -111 48.5c-44.667 0 -80.5 -16.5 -107.5 -49.5s-40.5 -72.5 -40.5 -118.5c0 -46.667 13.333 -86.667 40 -120s62.667 -50 108 -50zM501 468.001v-468h-90
v73h-2c-40 -59.333 -93 -89 -159 -89c-68.667 0 -123.167 24.5 -163.5 73.5s-60.5 108.833 -60.5 179.5c0 66.667 20.333 124.167 61 172.5s94 72.5 160 72.5c67.333 0 121.333 -30.667 162 -92h2v78h90zM173 694.001c16.667 0 30.834 -5.83301 42.501 -17.5
s17.5 -25.834 17.5 -42.501s-5.83301 -31 -17.5 -43s-25.834 -18 -42.501 -18s-31 5.83301 -43 17.5s-18 26.167 -18 43.5c0 16.667 6 30.834 18 42.501s26.333 17.5 43 17.5zM384 694.001c16.667 0 30.834 -5.83301 42.501 -17.5s17.5 -25.834 17.5 -42.501
s-5.83301 -31 -17.5 -43s-25.834 -18 -42.501 -18c-17.333 0 -31.833 5.83301 -43.5 17.5s-17.5 26.167 -17.5 43.5c0 16.667 6 30.834 18 42.501s26.333 17.5 43 17.5z" />
    <glyph glyph-name="aring" unicode="&#xe5;" horiz-adv-x="556" 
d="M264 64c47.333 0 84.5 16.334 111.5 49.001s40.5 73 40.5 121c0 47.333 -13.667 87.166 -41 119.499s-64.333 48.5 -111 48.5c-44.667 0 -80.5 -16.5 -107.5 -49.5s-40.5 -72.5 -40.5 -118.5c0 -46.667 13.333 -86.667 40 -120s62.667 -50 108 -50zM501 468.001v-468h-90
v73h-2c-40 -59.333 -93 -89 -159 -89c-68.667 0 -123.167 24.5 -163.5 73.5s-60.5 108.833 -60.5 179.5c0 66.667 20.333 124.167 61 172.5s94 72.5 160 72.5c67.333 0 121.333 -30.667 162 -92h2v78h90zM278 734.001c25.333 0 46.8311 -8.83496 64.498 -26.502
s26.5 -39.167 26.5 -64.5s-8.83301 -46.666 -26.5 -63.999s-39.167 -26 -64.5 -26s-46.666 8.83301 -63.999 26.5s-26 38.834 -26 63.501c0 25.333 8.83301 46.833 26.5 64.5s38.834 26.5 63.501 26.5zM277.998 597.999c12.667 0 23.5 4.33301 32.5 13
s13.5 19.334 13.5 32.001s-4.5 23.5 -13.5 32.5s-19.833 13.5 -32.5 13.5c-12 0 -22.5 -4.5 -31.5 -13.5s-13.5 -19.833 -13.5 -32.5s4.5 -23.334 13.5 -32.001s19.5 -13 31.5 -13z" />
    <glyph glyph-name="ae" unicode="&#xe6;" horiz-adv-x="807" 
d="M442 287h261.999c-5.33301 36 -19.333 64.5 -42 85.5s-51.667 31.5 -87 31.5c-34.667 0 -64.167 -11 -88.5 -33s-39.166 -50 -44.499 -84zM220.999 218c-27.333 0 -52.667 -6.83398 -76 -20.501s-35 -33.167 -35 -58.5s12 -44.166 36 -56.499s50 -18.5 78 -18.5
c28.667 0 55.167 6.5 79.5 19.5s36.5 32.5 36.5 58.5c0 25.333 -12.667 44.333 -38 57s-52.333 19 -81 19zM791.998 218.999h-356.998c0.666992 -42 14 -78.333 40 -109s59.667 -46 101 -46c32.667 0 59.5 7.5 80.5 22.5s40.833 37.833 59.5 68.5l76 -43
c-22 -40 -52.167 -71.333 -90.5 -94s-80.5 -34 -126.5 -34c-70 0 -130 29 -180 87c-18.667 -28 -44.167 -49.5 -76.5 -64.5s-66.5 -22.5 -102.5 -22.5c-50.667 0 -95 13.167 -133 39.5s-57 64.166 -57 113.499c0 48.667 17 87 51 115s76 42 126 42
c60 0 107.333 -14.333 142 -43v32c0 80.667 -41 121 -123 121c-54 0 -96.667 -5 -128 -15v80c44 8.66699 91 13 141 13c32 0 63.167 -6.5 93.5 -19.5s52.5 -32.167 66.5 -57.5c41.333 51.333 100.666 77 177.999 77c71.333 0 125.666 -23.167 162.999 -69.5
s56 -106.166 56 -179.499v-14z" />
    <glyph glyph-name="ccedilla" unicode="&#xe7;" horiz-adv-x="441" 
d="M406 451l0.000976562 -115.999c-36.667 42 -81.334 63 -134.001 63c-43.333 0 -80.166 -16.333 -110.499 -49s-45.5 -71 -45.5 -115c0 -48 15.167 -87.667 45.5 -119s69.166 -47 116.499 -47c48.667 0 91.334 20.667 128.001 62v-115
c-38.667 -20.667 -81.667 -31 -129 -31c-69.333 0 -128.5 23.667 -177.5 71s-73.5 105.666 -73.5 174.999c0 72 24.5 132 73.5 180s109.833 72 182.5 72c47.333 0 88.666 -10.333 123.999 -31zM300.001 -45.999l-105 -135l-53 27l87 137z" />
    <glyph glyph-name="egrave" unicode="&#xe8;" horiz-adv-x="488" 
d="M473 219l-356.998 -0.00292969c0.666992 -42 14 -78.333 40 -109s59.667 -46 101 -46c32.667 0 59.5 7.5 80.5 22.5s40.833 37.833 59.5 68.5l76 -43c-22 -40 -52.167 -71.333 -90.5 -94s-80.5 -34 -126.5 -34c-70 0 -125.833 23.333 -167.5 70
s-62.5 105.334 -62.5 176.001c0 74.667 19.667 135.334 59 182.001s95.666 70 168.999 70c71.333 0 125.666 -23.167 162.999 -69.5s56 -106.166 56 -179.499v-14zM121.002 286.997h261.999c-5.33301 36 -19.333 64.5 -42 85.5s-51.667 31.5 -87 31.5
c-34.667 0 -64.167 -11 -88.5 -33s-39.166 -50 -44.499 -84zM140.001 689.997l83 44l125 -166l-44 -27z" />
    <glyph glyph-name="eacute" unicode="&#xe9;" horiz-adv-x="488" 
d="M473 219l-356.998 -0.00292969c0.666992 -42 14 -78.333 40 -109s59.667 -46 101 -46c32.667 0 59.5 7.5 80.5 22.5s40.833 37.833 59.5 68.5l76 -43c-22 -40 -52.167 -71.333 -90.5 -94s-80.5 -34 -126.5 -34c-70 0 -125.833 23.333 -167.5 70
s-62.5 105.334 -62.5 176.001c0 74.667 19.667 135.334 59 182.001s95.666 70 168.999 70c71.333 0 125.666 -23.167 162.999 -69.5s56 -106.166 56 -179.499v-14zM121.002 286.997h261.999c-5.33301 36 -19.333 64.5 -42 85.5s-51.667 31.5 -87 31.5
c-34.667 0 -64.167 -11 -88.5 -33s-39.166 -50 -44.499 -84zM265.001 733.997l83 -44l-164 -149l-44 27z" />
    <glyph glyph-name="ecircumflex" unicode="&#xea;" horiz-adv-x="488" 
d="M473 219l-356.998 -0.00292969c0.666992 -42 14 -78.333 40 -109s59.667 -46 101 -46c32.667 0 59.5 7.5 80.5 22.5s40.833 37.833 59.5 68.5l76 -43c-22 -40 -52.167 -71.333 -90.5 -94s-80.5 -34 -126.5 -34c-70 0 -125.833 23.333 -167.5 70
s-62.5 105.334 -62.5 176.001c0 74.667 19.667 135.334 59 182.001s95.666 70 168.999 70c71.333 0 125.666 -23.167 162.999 -69.5s56 -106.166 56 -179.499v-14zM121.002 286.997h261.999c-5.33301 36 -19.333 64.5 -42 85.5s-51.667 31.5 -87 31.5
c-34.667 0 -64.167 -11 -88.5 -33s-39.166 -50 -44.499 -84zM84.001 588.997l159 145l161 -145l-59 -46l-102 96l-101 -96z" />
    <glyph glyph-name="edieresis" unicode="&#xeb;" horiz-adv-x="488" 
d="M473 219l-356.998 -0.00292969c0.666992 -42 14 -78.333 40 -109s59.667 -46 101 -46c32.667 0 59.5 7.5 80.5 22.5s40.833 37.833 59.5 68.5l76 -43c-22 -40 -52.167 -71.333 -90.5 -94s-80.5 -34 -126.5 -34c-70 0 -125.833 23.333 -167.5 70
s-62.5 105.334 -62.5 176.001c0 74.667 19.667 135.334 59 182.001s95.666 70 168.999 70c71.333 0 125.666 -23.167 162.999 -69.5s56 -106.166 56 -179.499v-14zM121.002 286.997h261.999c-5.33301 36 -19.333 64.5 -42 85.5s-51.667 31.5 -87 31.5
c-34.667 0 -64.167 -11 -88.5 -33s-39.166 -50 -44.499 -84zM139.001 693.997c16.667 0 30.834 -5.83301 42.501 -17.5s17.5 -25.834 17.5 -42.501s-5.83301 -31 -17.5 -43s-25.834 -18 -42.501 -18s-31 5.83301 -43 17.5s-18 26.167 -18 43.5c0 16.667 6 30.834 18 42.501
s26.333 17.5 43 17.5zM350.001 693.997c16.667 0 30.834 -5.83301 42.501 -17.5s17.5 -25.834 17.5 -42.501s-5.83301 -31 -17.5 -43s-25.834 -18 -42.501 -18c-17.333 0 -31.833 5.83301 -43.5 17.5s-17.5 26.167 -17.5 43.5c0 16.667 6 30.834 18 42.501
s26.333 17.5 43 17.5z" />
    <glyph glyph-name="igrave" unicode="&#xec;" horiz-adv-x="254" 
d="M172 468v-468h-90v468h90zM23 690l83 44l125 -166l-44 -27z" />
    <glyph glyph-name="iacute" unicode="&#xed;" horiz-adv-x="254" 
d="M172 468v-468h-90v468h90zM148 734l83 -44l-164 -149l-44 27z" />
    <glyph glyph-name="icircumflex" unicode="&#xee;" horiz-adv-x="254" 
d="M172 468v-468h-90v468h90zM-33 589l159 145l161 -145l-59 -46l-102 96l-101 -96z" />
    <glyph glyph-name="idieresis" unicode="&#xef;" horiz-adv-x="254" 
d="M172 468v-468h-90v468h90zM22 694c16.667 0 30.834 -5.83301 42.501 -17.5s17.5 -25.834 17.5 -42.501s-5.83301 -31 -17.5 -43s-25.834 -18 -42.501 -18c-17.333 0 -31.833 5.83301 -43.5 17.5s-17.5 26.167 -17.5 43.5c0 16.667 6 30.834 18 42.501
s26.333 17.5 43 17.5zM233 694c16.667 0 30.834 -5.83301 42.501 -17.5s17.5 -25.834 17.5 -42.501s-5.83301 -31 -17.5 -43s-25.834 -18 -42.501 -18s-31 5.83301 -43 17.5s-18 26.167 -18 43.5c0 16.667 6 30.834 18 42.501s26.333 17.5 43 17.5z" />
    <glyph glyph-name="eth" unicode="&#xf0;" horiz-adv-x="540" 
d="M270 396c-44 0 -81.667 -16 -113 -48s-47 -70.333 -47 -115c0 -44 15.667 -82.167 47 -114.5s69 -48.5 113 -48.5s81.667 16.167 113 48.5s47 70.5 47 114.5c0 44.667 -15.667 83 -47 115s-69 48 -113 48zM46 824l78 44l101 -111l146 83l49 -54l-145 -84
c50 -58.667 105 -136.667 165 -234c53.333 -86.667 80 -165 80 -235c0 -74 -23.833 -134 -71.5 -180s-107.167 -69 -178.5 -69c-70 0 -129.167 24 -177.5 72s-72.5 107 -72.5 177s24.167 129 72.5 177s107.5 72 177.5 72c22.667 0 44.667 -4.66699 66 -14l2 2
c-19.333 31.333 -43.833 67 -73.5 107s-52.167 67 -67.5 81l-158 -91l-50 55l158 91z" />
    <glyph glyph-name="ntilde" unicode="&#xf1;" horiz-adv-x="523" 
d="M152 468v-62.9971h2c13.333 24.667 32.833 43.667 58.5 57s53.167 20 82.5 20c61.333 0 104.333 -18 129 -54s37 -85.667 37 -149v-279h-90v268c0 46 -6.5 79.833 -19.5 101.5s-40.833 32.5 -83.5 32.5c-18.667 0 -35 -2.33301 -49 -7s-25 -12.334 -33 -23.001
s-14.5 -20.834 -19.5 -30.501s-8.5 -23.334 -10.5 -41.001s-3.16699 -31.5 -3.5 -41.5s-0.5 -24.667 -0.5 -44v-215h-90v468h90zM118 573.003l-47 40l3 5c11.333 16 21 28.667 29 38s19 18 33 26s29.333 12 46 12c27.333 0 57 -8.66699 89 -26c33.333 -18 57.333 -27 72 -27
c23.333 0 44.666 16 63.999 48l47 -39c-26.667 -54.667 -66 -82 -118 -82c-19.333 0 -47 8.66699 -83 26c-36 16.667 -62 25 -78 25c-11.333 0 -22.166 -4.66699 -32.499 -14s-18.5 -20 -24.5 -32z" />
    <glyph glyph-name="ograve" unicode="&#xf2;" horiz-adv-x="540" 
d="M270 482c70 0 129.167 -24 177.5 -72s72.5 -107 72.5 -177s-24.167 -129 -72.5 -177s-107.5 -72 -177.5 -72s-129.167 24 -177.5 72s-72.5 107 -72.5 177s24.167 129 72.5 177s107.5 72 177.5 72zM270 396c-44 0 -81.667 -16 -113 -48s-47 -70.333 -47 -115
c0 -44 15.667 -82.167 47 -114.5s69 -48.5 113 -48.5s81.667 16.167 113 48.5s47 70.5 47 114.5c0 44.667 -15.667 83 -47 115s-69 48 -113 48zM166 690l83 44l125 -166l-44 -27z" />
    <glyph glyph-name="oacute" unicode="&#xf3;" horiz-adv-x="540" 
d="M270 482c70 0 129.167 -24 177.5 -72s72.5 -107 72.5 -177s-24.167 -129 -72.5 -177s-107.5 -72 -177.5 -72s-129.167 24 -177.5 72s-72.5 107 -72.5 177s24.167 129 72.5 177s107.5 72 177.5 72zM270 396c-44 0 -81.667 -16 -113 -48s-47 -70.333 -47 -115
c0 -44 15.667 -82.167 47 -114.5s69 -48.5 113 -48.5s81.667 16.167 113 48.5s47 70.5 47 114.5c0 44.667 -15.667 83 -47 115s-69 48 -113 48zM291 734l83 -44l-164 -149l-44 27z" />
    <glyph glyph-name="ocircumflex" unicode="&#xf4;" horiz-adv-x="540" 
d="M270 482c70 0 129.167 -24 177.5 -72s72.5 -107 72.5 -177s-24.167 -129 -72.5 -177s-107.5 -72 -177.5 -72s-129.167 24 -177.5 72s-72.5 107 -72.5 177s24.167 129 72.5 177s107.5 72 177.5 72zM270 396c-44 0 -81.667 -16 -113 -48s-47 -70.333 -47 -115
c0 -44 15.667 -82.167 47 -114.5s69 -48.5 113 -48.5s81.667 16.167 113 48.5s47 70.5 47 114.5c0 44.667 -15.667 83 -47 115s-69 48 -113 48zM110 589l159 145l161 -145l-59 -46l-102 96l-101 -96z" />
    <glyph glyph-name="otilde" unicode="&#xf5;" horiz-adv-x="540" 
d="M270 482c70 0 129.167 -24 177.5 -72s72.5 -107 72.5 -177s-24.167 -129 -72.5 -177s-107.5 -72 -177.5 -72s-129.167 24 -177.5 72s-72.5 107 -72.5 177s24.167 129 72.5 177s107.5 72 177.5 72zM270 396c-44 0 -81.667 -16 -113 -48s-47 -70.333 -47 -115
c0 -44 15.667 -82.167 47 -114.5s69 -48.5 113 -48.5s81.667 16.167 113 48.5s47 70.5 47 114.5c0 44.667 -15.667 83 -47 115s-69 48 -113 48zM126 573l-47 40l3 5c11.333 16 21 28.667 29 38s19 18 33 26s29.333 12 46 12c27.333 0 57 -8.66699 89 -26
c33.333 -18 57.333 -27 72 -27c23.333 0 44.666 16 63.999 48l47 -39c-26.667 -54.667 -66 -82 -118 -82c-19.333 0 -47 8.66699 -83 26c-36 16.667 -62 25 -78 25c-11.333 0 -22.166 -4.66699 -32.499 -14s-18.5 -20 -24.5 -32z" />
    <glyph glyph-name="odieresis" unicode="&#xf6;" horiz-adv-x="540" 
d="M270 482c70 0 129.167 -24 177.5 -72s72.5 -107 72.5 -177s-24.167 -129 -72.5 -177s-107.5 -72 -177.5 -72s-129.167 24 -177.5 72s-72.5 107 -72.5 177s24.167 129 72.5 177s107.5 72 177.5 72zM270 396c-44 0 -81.667 -16 -113 -48s-47 -70.333 -47 -115
c0 -44 15.667 -82.167 47 -114.5s69 -48.5 113 -48.5s81.667 16.167 113 48.5s47 70.5 47 114.5c0 44.667 -15.667 83 -47 115s-69 48 -113 48zM165 694c16.667 0 30.834 -5.83301 42.501 -17.5s17.5 -25.834 17.5 -42.501s-5.83301 -31 -17.5 -43s-25.834 -18 -42.501 -18
s-31 5.83301 -43 17.5s-18 26.167 -18 43.5c0 16.667 6 30.834 18 42.501s26.333 17.5 43 17.5zM376 694c16.667 0 30.834 -5.83301 42.501 -17.5s17.5 -25.834 17.5 -42.501s-5.83301 -31 -17.5 -43s-25.834 -18 -42.501 -18c-17.333 0 -31.833 5.83301 -43.5 17.5
s-17.5 26.167 -17.5 43.5c0 16.667 6 30.834 18 42.501s26.333 17.5 43 17.5z" />
    <glyph glyph-name="divide" unicode="&#xf7;" 
d="M33 213v86h512v-86h-512zM289 124c17.333 0 32 -6.16699 44 -18.5s18 -27.166 18 -44.499c0 -16.667 -6 -31 -18 -43s-26.667 -18 -44 -18s-32 6 -44 18s-18 26.333 -18 43c0 17.333 6 32.166 18 44.499s26.667 18.5 44 18.5zM289 512c17.333 0 32 -6.16699 44 -18.5
s18 -27.166 18 -44.499c0 -16.667 -6 -31 -18 -43s-26.667 -18 -44 -18s-32 6 -44 18s-18 26.333 -18 43c0 17.333 6 32.166 18 44.499s26.667 18.5 44 18.5z" />
    <glyph glyph-name="oslash" unicode="&#xf8;" horiz-adv-x="540" 
d="M526 459l-65 -64c39.333 -52.667 59 -106.667 59 -162c0 -70 -24.167 -129 -72.5 -177s-107.5 -72 -177.5 -72c-62 0 -116.333 19.333 -163 58l-61 -64l-31 31l61 62c-37.333 52 -56 106 -56 162c0 70 24.167 129 72.5 177s107.5 72 177.5 72
c61.333 0 114.333 -19.333 159 -58l66 67zM142 134l223 229c-28 22 -59.667 33 -95 33c-44 0 -81.667 -16 -113 -48s-47 -70.333 -47 -115c0 -34.667 10.667 -67.667 32 -99zM395 330l-222 -228c26 -21.333 58.333 -32 97 -32c44 0 81.667 16.167 113 48.5s47 70.5 47 114.5
c0 38 -11.667 70.333 -35 97z" />
    <glyph glyph-name="ugrave" unicode="&#xf9;" horiz-adv-x="512" 
d="M58 468h90v-259c0 -43.333 7.83301 -77.666 23.5 -102.999s43.834 -38 84.501 -38s68.834 12.667 84.501 38s23.5 59.666 23.5 102.999v259h90v-269c0 -66.667 -16.333 -119.167 -49 -157.5s-82.334 -57.5 -149.001 -57.5s-116.334 19.167 -149.001 57.5
s-49 90.833 -49 157.5v269zM152 690l83 44l125 -166l-44 -27z" />
    <glyph glyph-name="uacute" unicode="&#xfa;" horiz-adv-x="512" 
d="M58 468h90v-259c0 -43.333 7.83301 -77.666 23.5 -102.999s43.834 -38 84.501 -38s68.834 12.667 84.501 38s23.5 59.666 23.5 102.999v259h90v-269c0 -66.667 -16.333 -119.167 -49 -157.5s-82.334 -57.5 -149.001 -57.5s-116.334 19.167 -149.001 57.5
s-49 90.833 -49 157.5v269zM277 734l83 -44l-164 -149l-44 27z" />
    <glyph glyph-name="ucircumflex" unicode="&#xfb;" horiz-adv-x="512" 
d="M58 468h90v-259c0 -43.333 7.83301 -77.666 23.5 -102.999s43.834 -38 84.501 -38s68.834 12.667 84.501 38s23.5 59.666 23.5 102.999v259h90v-269c0 -66.667 -16.333 -119.167 -49 -157.5s-82.334 -57.5 -149.001 -57.5s-116.334 19.167 -149.001 57.5
s-49 90.833 -49 157.5v269zM96 589l159 145l161 -145l-59 -46l-102 96l-101 -96z" />
    <glyph glyph-name="udieresis" unicode="&#xfc;" horiz-adv-x="512" 
d="M58 468h90v-259c0 -43.333 7.83301 -77.666 23.5 -102.999s43.834 -38 84.501 -38s68.834 12.667 84.501 38s23.5 59.666 23.5 102.999v259h90v-269c0 -66.667 -16.333 -119.167 -49 -157.5s-82.334 -57.5 -149.001 -57.5s-116.334 19.167 -149.001 57.5
s-49 90.833 -49 157.5v269zM151 694c16.667 0 30.834 -5.83301 42.501 -17.5s17.5 -25.834 17.5 -42.501s-5.83301 -31 -17.5 -43s-25.834 -18 -42.501 -18s-31 5.83301 -43 17.5s-18 26.167 -18 43.5c0 16.667 6 30.834 18 42.501s26.333 17.5 43 17.5zM362 694
c16.667 0 30.834 -5.83301 42.501 -17.5s17.5 -25.834 17.5 -42.501s-5.83301 -31 -17.5 -43s-25.834 -18 -42.501 -18c-17.333 0 -31.833 5.83301 -43.5 17.5s-17.5 26.167 -17.5 43.5c0 16.667 6 30.834 18 42.501s26.333 17.5 43 17.5z" />
    <glyph glyph-name="yacute" unicode="&#xfd;" horiz-adv-x="484" 
d="M201 80l-214 388h105l158 -297l147 297h101l-379 -736h-102zM263 734l83 -44l-164 -149l-44 27z" />
    <glyph glyph-name="thorn" unicode="&#xfe;" horiz-adv-x="556" 
d="M145 868l0.000976562 -478h2c40.667 61.333 95 92 163 92c65.333 0 118.333 -24.167 159 -72.5s61 -105.833 61 -172.5c0 -70.667 -20 -130.5 -60 -179.5s-94.667 -73.5 -164 -73.5c-32 0 -61.833 8 -89.5 24s-50.834 37.667 -69.501 65h-2v-341h-90v1136h90zM288.001 64
c47.333 0 84.5 16.334 111.5 49.001s40.5 73 40.5 121c0 47.333 -13.667 87.166 -41 119.499s-64.333 48.5 -111 48.5c-44.667 0 -80.5 -16.5 -107.5 -49.5s-40.5 -72.5 -40.5 -118.5c0 -46.667 13.333 -86.667 40 -120s62.667 -50 108 -50z" />
    <glyph glyph-name="ydieresis" unicode="&#xff;" horiz-adv-x="484" 
d="M201 80l-214 388h105l158 -297l147 297h101l-379 -736h-102zM137 694c16.667 0 30.834 -5.83301 42.501 -17.5s17.5 -25.834 17.5 -42.501s-5.83301 -31 -17.5 -43s-25.834 -18 -42.501 -18s-31 5.83301 -43 17.5s-18 26.167 -18 43.5c0 16.667 6 30.834 18 42.501
s26.333 17.5 43 17.5zM348 694c16.667 0 30.834 -5.83301 42.501 -17.5s17.5 -25.834 17.5 -42.501s-5.83301 -31 -17.5 -43s-25.834 -18 -42.501 -18c-17.333 0 -31.833 5.83301 -43.5 17.5s-17.5 26.167 -17.5 43.5c0 16.667 6 30.834 18 42.501s26.333 17.5 43 17.5z" />
    <glyph glyph-name="dotlessi" unicode="&#x131;" horiz-adv-x="254" 
d="M172 468v-468h-90v468h90z" />
    <glyph glyph-name="Lslash" unicode="&#x141;" horiz-adv-x="385" 
d="M166 754v-284l118 83v-96l-118 -79v-292h229v-86h-323v320l-81 -58v97l81 54v341h94z" />
    <glyph glyph-name="lslash" unicode="&#x142;" horiz-adv-x="255" 
d="M179 868v-316l82 64v-94l-82 -61v-461h-90v412l-81 -61v93l81 57v367h90z" />
    <glyph glyph-name="OE" unicode="&#x152;" horiz-adv-x="1143" 
d="M718 0v126.001h-2c-34 -45.333 -77.5 -80.5 -130.5 -105.5s-110.167 -37.167 -171.5 -36.5c-110 0 -203.333 37.667 -280 113s-115 168.666 -115 279.999c0 108 38.833 200.5 116.5 277.5s170.5 115.5 278.5 115.5c60 -2 117.333 -15.667 172 -41s98 -61 130 -107h2v132
h395v-86h-310v-211h301v-86h-301v-285h310v-86h-395zM414 72.001c82 0 152.667 29.5 212 88.5s89 131.167 89 216.5c0 84.667 -28.5 156.667 -85.5 216s-128.833 89 -215.5 89s-158.5 -29.667 -215.5 -89s-85.5 -131.333 -85.5 -216c0 -85.333 29.667 -157.5 89 -216.5
s130 -88.5 212 -88.5z" />
    <glyph glyph-name="oe" unicode="&#x153;" horiz-adv-x="897" 
d="M529 287h261.999c-5.33301 36 -19.333 64.5 -42 85.5s-51.667 31.5 -87 31.5c-34.667 0 -64.167 -11 -88.5 -33s-39.166 -50 -44.499 -84zM269.999 396c-44 0 -81.667 -16 -113 -48s-47 -70.333 -47 -115c0 -44 15.667 -82.167 47 -114.5s69 -48.5 113 -48.5
s81.667 16.167 113 48.5s47 70.5 47 114.5c0 44.667 -15.667 83 -47 115s-69 48 -113 48zM881.999 219l-357.001 -0.000976562c0.666992 -42 14 -78.333 40 -109s59.667 -46 101 -46c32.667 0 59.5 7.5 80.5 22.5s40.833 37.833 59.5 68.5l76 -43
c-22 -40 -52.167 -71.333 -90.5 -94s-80.5 -34 -126.5 -34c-40 -0.666992 -77.667 8.16602 -113 26.499s-62.666 43.833 -81.999 76.5c-22 -32.667 -51 -58.167 -87 -76.5s-73.667 -27.166 -113 -26.499c-70 0 -129.167 24 -177.5 72s-72.5 107 -72.5 177
s24.167 129 72.5 177s107.5 72 177.5 72c38.667 -1.33301 76.334 -11.333 113.001 -30s65.667 -43.667 87 -75c42.667 67.333 107 102.333 193 105c71.333 0 125.666 -23.167 162.999 -69.5s56 -106.166 56 -179.499v-14z" />
    <glyph glyph-name="Scaron" unicode="&#x160;" horiz-adv-x="537" 
d="M482 656l-74.999 -45c-28 47.333 -68.333 71 -121 71c-32 0 -61 -10 -87 -30s-39 -45.667 -39 -77c0 -45.333 35 -81.333 105 -108l54 -21c60 -23.333 106.167 -52.333 138.5 -87s48.5 -81.334 48.5 -140.001c0 -68 -23.167 -124.167 -69.5 -168.5
s-103.5 -66.5 -171.5 -66.5c-60.667 0 -112.667 19.833 -156 59.5s-69 90.167 -77 151.5l95 20c-0.666992 -40.667 13.166 -74.667 41.499 -102s63.166 -41 104.499 -41c40 0 73.167 14.5 99.5 43.5s39.5 63.5 39.5 103.5c0 36.667 -11.5 65.5 -34.5 86.5
s-54.833 39.833 -95.5 56.5l-52 22c-51.333 22 -91.5 47.333 -120.5 76s-43.5 67 -43.5 115c0 58.667 22 105.834 66 141.501s96 53.5 156 53.5c86.667 0 151.334 -38 194.001 -114zM109.001 974l58 46l101 -96l102 96l59 -46l-161 -145z" />
    <glyph glyph-name="scaron" unicode="&#x161;" horiz-adv-x="384" 
d="M323 400l-73 -38.999c-13.333 27.333 -33.333 41 -60 41c-12.667 0 -24 -4.5 -34 -13.5s-15 -19.833 -15 -32.5c0 -6 0.833008 -11.5 2.5 -16.5s5 -9.66699 10 -14l13 -11.5c3.66699 -3.33301 9.66699 -7.16602 18 -11.499l19.5 -10
c4.66699 -2.33301 12.5 -5.83301 23.5 -10.5s18.5 -8 22.5 -10c33.333 -15.333 59.666 -33 78.999 -53s29 -46.667 29 -80c0 -44 -15.833 -80.833 -47.5 -110.5s-69.5 -44.5 -113.5 -44.5c-35.333 0 -68.166 9.5 -98.499 28.5s-51.5 44.5 -63.5 76.5l77 35
c22 -40 50.333 -60 85 -60c19.333 0 36 6.16699 50 18.5s21 28.166 21 47.499s-11 36.333 -33 51l-88 47c-30.667 16.667 -53.334 33.167 -68.001 49.5s-22 39.166 -22 68.499c0 38 13.5 70.167 40.5 96.5s59.5 39.5 97.5 39.5c58.667 0 101.334 -27.333 128.001 -82z
M32 688.001l58 46l101 -96l102 96l59 -46l-161 -145z" />
    <glyph glyph-name="Ydieresis" unicode="&#x178;" horiz-adv-x="573" 
d="M240 328l-246 426h108l185 -322l185 322h108l-246 -426v-328h-94v328zM182 980c16.667 0 30.834 -5.83301 42.501 -17.5s17.5 -25.834 17.5 -42.501s-5.83301 -31 -17.5 -43s-25.834 -18 -42.501 -18c-17.333 0 -31.833 5.83301 -43.5 17.5s-17.5 26.167 -17.5 43.5
c0 16.667 6 30.834 18 42.501s26.333 17.5 43 17.5zM393 980c16.667 0 30.834 -5.83301 42.501 -17.5s17.5 -25.834 17.5 -42.501s-5.83301 -31 -17.5 -43s-25.834 -18 -42.501 -18s-31 5.83301 -43 17.5s-18 26.167 -18 43.5c0 16.667 6 30.834 18 42.501
s26.333 17.5 43 17.5z" />
    <glyph glyph-name="Zcaron" unicode="&#x17d;" horiz-adv-x="552" 
d="M162 86h382v-86h-535l382 668h-328v86h481zM116 974l58 46l101 -96l102 96l59 -46l-161 -145z" />
    <glyph glyph-name="zcaron" unicode="&#x17e;" horiz-adv-x="495" 
d="M177 84h304v-84h-479l317 384h-263v84h438zM88 688l58 46l101 -96l102 96l59 -46l-161 -145z" />
    <glyph glyph-name="florin" unicode="&#x192;" 
d="M355 505l128.999 0.000976562l-9 -68h-131l-55 -303c-4.66699 -28 -8.83398 -50.5 -12.501 -67.5s-9 -36.667 -16 -59s-14.333 -40.166 -22 -53.499s-17.667 -27.333 -30 -42s-26.166 -26 -41.499 -34s-33.833 -14.5 -55.5 -19.5s-46.167 -7.5 -73.5 -7.5h-24l15 86h19
c18.667 0 35.167 2.16699 49.5 6.5s26.5 11.666 36.5 21.999s18.167 20 24.5 29s12 22.833 17 41.5s8.5 33 10.5 43s5 26.667 9 50l53 308h-65l9 68h70l21 124c11.333 66.667 31.333 117.834 60 153.501s74.334 53.5 137.001 53.5c22 0 42 -2.33301 60 -7l-16 -84
c-12 4.66699 -25.667 7 -41 7s-29 -2.83301 -41 -8.5s-21.167 -11.834 -27.5 -18.501s-12.333 -17.334 -18 -32.001s-9.5 -26.167 -11.5 -34.5s-4.66699 -21.833 -8 -40.5z" />
    <glyph glyph-name="circumflex" unicode="&#x2c6;" horiz-adv-x="470" 
d="M75 589l159 145l161 -145l-59 -46l-102 96l-101 -96z" />
    <glyph glyph-name="caron" unicode="&#x2c7;" horiz-adv-x="472" 
d="M76 688l58 46l101 -96l102 96l59 -46l-161 -145z" />
    <glyph glyph-name="breve" unicode="&#x2d8;" horiz-adv-x="490" 
d="M71 694l72 0.000976562c21.333 -50 55.333 -75 102 -75c26 0 46.833 6.16699 62.5 18.5s29.167 31.166 40.5 56.499h71c-7.33301 -41.333 -27.5 -75.166 -60.5 -101.499s-70.833 -39.5 -113.5 -39.5c-42 0 -79.5 13.167 -112.5 39.5s-53.5 60.166 -61.5 101.499z" />
    <glyph glyph-name="dotaccent" unicode="&#x2d9;" horiz-adv-x="360" 
d="M181 694c16.667 0 30.834 -5.83301 42.501 -17.5s17.5 -25.834 17.5 -42.501s-5.83301 -31 -17.5 -43s-25.834 -18 -42.501 -18s-31 5.83301 -43 17.5s-18 26.167 -18 43.5c0 16.667 6 30.834 18 42.501s26.333 17.5 43 17.5z" />
    <glyph glyph-name="ring" unicode="&#x2da;" horiz-adv-x="360" 
d="M180 734c25.333 0 46.8311 -8.83496 64.498 -26.502s26.5 -39.167 26.5 -64.5s-8.83301 -46.666 -26.5 -63.999s-39.167 -26 -64.5 -26s-46.666 8.83301 -63.999 26.5s-26 38.834 -26 63.501c0 25.333 8.83301 46.833 26.5 64.5s38.834 26.5 63.501 26.5z
M179.998 597.998c12.667 0 23.5 4.33301 32.5 13s13.5 19.334 13.5 32.001s-4.5 23.5 -13.5 32.5s-19.833 13.5 -32.5 13.5c-12 0 -22.5 -4.5 -31.5 -13.5s-13.5 -19.833 -13.5 -32.5s4.5 -23.334 13.5 -32.001s19.5 -13 31.5 -13z" />
    <glyph glyph-name="ogonek" unicode="&#x2db;" horiz-adv-x="340" 
d="M165 -16l46 -0.000976562v-2c-40.667 -27.333 -61 -55.666 -61 -84.999c0 -31.333 18.667 -47 56 -47c20 0 36.667 4.33301 50 13l-7 -58c-18 -11.333 -39.333 -17 -64 -17c-26.667 0 -50.167 7.33301 -70.5 22s-30.5 34.667 -30.5 60c0 43.333 27 81.333 81 114z" />
    <glyph glyph-name="tilde" unicode="&#x2dc;" horiz-adv-x="510" 
d="M111 573l-47 40l3 5c11.333 16 21 28.667 29 38s19 18 33 26s29.333 12 46 12c27.333 0 57 -8.66699 89 -26c33.333 -18 57.333 -27 72 -27c23.333 0 44.666 16 63.999 48l47 -39c-26.667 -54.667 -66 -82 -118 -82c-19.333 0 -47 8.66699 -83 26
c-36 16.667 -62 25 -78 25c-11.333 0 -22.166 -4.66699 -32.499 -14s-18.5 -20 -24.5 -32z" />
    <glyph glyph-name="hungarumlaut" unicode="&#x2dd;" horiz-adv-x="470" 
d="M349 725l83 -44l-164 -149l-44 27zM163 734l83 -44l-164 -149l-44 27z" />
    <glyph glyph-name="mu" unicode="&#x3bc;" horiz-adv-x="512" 
d="M58 468h89.999v-259c0 -43.333 7.83301 -77.666 23.5 -102.999s43.834 -38 84.501 -38s68.834 12.667 84.501 38s23.5 59.666 23.5 102.999v259h90v-269c0 -66.667 -16.333 -119.167 -49 -157.5s-82.334 -57.5 -149.001 -57.5c-37.333 0 -73.333 14.667 -108 44v-296h-90
v736z" />
    <glyph glyph-name="endash" unicode="&#x2013;" horiz-adv-x="500" 
d="M0 358h500v-75h-500v75z" />
    <glyph glyph-name="emdash" unicode="&#x2014;" horiz-adv-x="1000" 
d="M0 358h1000v-75h-1000v75z" />
    <glyph glyph-name="quoteleft" unicode="&#x2018;" horiz-adv-x="277" 
d="M139 472l-79 31l133 267l56 -23z" />
    <glyph glyph-name="quoteright" unicode="&#x2019;" horiz-adv-x="277" 
d="M138 770l79 -31l-133 -267l-56 23z" />
    <glyph glyph-name="quotesinglbase" unicode="&#x201a;" horiz-adv-x="277" 
d="M164 119l78 -31l-133 -267l-55 23z" />
    <glyph glyph-name="quotedblleft" unicode="&#x201c;" horiz-adv-x="439" 
d="M305 472l-79 31l133 267l56 -23zM139 472l-79 31l133 267l56 -23z" />
    <glyph glyph-name="quotedblright" unicode="&#x201d;" horiz-adv-x="439" 
d="M134 770l79 -31l-133 -267l-56 23zM300 770l79 -31l-133 -267l-56 23z" />
    <glyph glyph-name="quotedblbase" unicode="&#x201e;" horiz-adv-x="439" 
d="M160 119l78 -31l-133 -267l-55 23zM326 119l78 -31l-133 -267l-55 23z" />
    <glyph glyph-name="dagger" unicode="&#x2020;" 
d="M244 868h90v-275h181v-86h-181v-595h-90v595h-181v86h181v275z" />
    <glyph glyph-name="daggerdbl" unicode="&#x2021;" 
d="M244 868h90v-239h181v-86h-181v-122h181v-86h-181v-422h-90v422h-181v86h181v122h-181v86h181v239z" />
    <glyph glyph-name="bullet" unicode="&#x2022;" 
d="M289 189c-52 0 -96.335 18.333 -133.002 55s-55 81 -55 133c-0.666992 52.667 17.333 97.334 54 134.001s81.334 55 134.001 55s97.334 -18.333 134.001 -55s55 -81.334 55 -134.001c0 -52 -18.5 -96.333 -55.5 -133s-81.5 -55 -133.5 -55z" />
    <glyph glyph-name="ellipsis" unicode="&#x2026;" horiz-adv-x="1000" 
d="M500 100c16 0 29.667 -5.83301 41 -17.5s17 -25.167 17 -40.5c0 -16 -5.66699 -29.667 -17 -41s-25 -17 -41 -17s-29.667 5.66699 -41 17s-17 25 -17 41c0 15.333 5.66699 28.833 17 40.5s25 17.5 41 17.5zM834 100c16 0 29.667 -5.83301 41 -17.5s17 -25.167 17 -40.5
c0 -16 -5.66699 -29.667 -17 -41s-25 -17 -41 -17s-29.667 5.66699 -41 17s-17 25 -17 41c0 15.333 5.66699 28.833 17 40.5s25 17.5 41 17.5zM166 100c16 0 29.667 -5.83301 41 -17.5s17 -25.167 17 -40.5c0 -16 -5.66699 -29.667 -17 -41s-25 -17 -41 -17
s-29.667 5.66699 -41 17s-17 25 -17 41c0 15.333 5.66699 28.833 17 40.5s25 17.5 41 17.5z" />
    <glyph glyph-name="perthousand" unicode="&#x2030;" horiz-adv-x="1110" 
d="M198 770c48 0 89.333 -16.833 124 -50.5s52 -74.167 52 -121.5s-17.5 -87.666 -52.5 -120.999s-76.167 -50 -123.5 -50s-88.5 16.667 -123.5 50s-52.5 73.666 -52.5 120.999s17.333 87.833 52 121.5s76 50.5 124 50.5zM198 710c-31.333 0 -58.5 -11 -81.5 -33
s-34.5 -48.333 -34.5 -79c0 -30 11.5 -56 34.5 -78s50.167 -33 81.5 -33s58.5 11 81.5 33s34.5 48 34.5 78c0 30.667 -11.5 57 -34.5 79s-50.167 33 -81.5 33zM557 770l45 -26l-440 -760l-46 25zM521 327c48 0 89.333 -16.833 124 -50.5s52 -74.167 52 -121.5
s-17.5 -87.666 -52.5 -120.999s-76.167 -50 -123.5 -50s-88.5 16.667 -123.5 50s-52.5 73.666 -52.5 120.999s17.333 87.833 52 121.5s76 50.5 124 50.5zM521 267c-31.333 0 -58.5 -11 -81.5 -33s-34.5 -48.333 -34.5 -79c0 -30 11.5 -56 34.5 -78s50.167 -33 81.5 -33
s58.5 11 81.5 33s34.5 48 34.5 78c0 30.667 -11.5 57 -34.5 79s-50.167 33 -81.5 33zM913 327c48 0 89.333 -16.833 124 -50.5s52 -74.167 52 -121.5s-17.5 -87.666 -52.5 -120.999s-76.167 -50 -123.5 -50s-88.5 16.667 -123.5 50s-52.5 73.666 -52.5 120.999
s17.333 87.833 52 121.5s76 50.5 124 50.5zM913 267c-31.333 0 -58.5 -11 -81.5 -33s-34.5 -48.333 -34.5 -79c0 -30 11.5 -56 34.5 -78s50.167 -33 81.5 -33s58.5 11 81.5 33s34.5 48 34.5 78c0 30.667 -11.5 57 -34.5 79s-50.167 33 -81.5 33z" />
    <glyph glyph-name="guilsinglleft" unicode="&#x2039;" horiz-adv-x="336" 
d="M111 320l149 -191l-56 -41l-182 232l182 240l56 -41z" />
    <glyph glyph-name="guilsinglright" unicode="&#x203a;" horiz-adv-x="336" 
d="M76 129l149 191l-149 199l56 41l182 -240l-182 -232z" />
    <glyph glyph-name="fraction" unicode="&#x2044;" horiz-adv-x="165" 
d="M277 770l51 -26l-440 -760l-51 28z" />
    <glyph glyph-name="Euro" unicode="&#x20ac;" 
d="M589 729l-20.998 -85c-44 26.667 -96.667 40 -158 40c-70.667 0 -125.334 -21.333 -164.001 -64s-63.667 -96 -75 -160h357l-14 -58h-351c-0.666992 -10.667 -1 -19.334 -1 -26.001c0 -15.333 1.33301 -31.333 4 -48h323l-14 -58h-299
c12.667 -56.667 38.167 -104.167 76.5 -142.5s90.166 -57.5 155.499 -57.5c32 0 59.667 3.5 83 10.5s49 20.167 77 39.5v-101c-42.667 -23.333 -95 -35 -157 -35c-87.333 0 -161 24.5 -221 73.5s-97.667 119.833 -113 212.5h-77l14 58h56c-1.33301 24 -2 39 -2 45
c0 8.66699 0.333008 18.334 1 29.001h-68l14 58h60c16.667 100.667 56.167 177.5 118.5 230.5s137.5 79.5 225.5 79.5c26.667 0 56.167 -3.5 88.5 -10.5s59.5 -17.167 81.5 -30.5z" />
    <glyph glyph-name="trademark" unicode="&#x2122;" horiz-adv-x="940" 
d="M906 754v-421h-64v357h-2l-144 -357h-39l-140 357h-2v-357h-64v421h105l121 -297l125 297h104zM374 754v-64h-138v-357h-64v357h-138v64h340z" />
    <glyph glyph-name="minus" unicode="&#x2212;" 
d="M33 213v86h512v-86h-512z" />
    <glyph glyph-name="fi" unicode="&#xfb01;" horiz-adv-x="512" 
d="M430 468v-468h-90v468h90zM385 745c17.333 0 32 -6.16699 44 -18.5s18 -27.166 18 -44.499c0 -16.667 -6 -31 -18 -43s-26.667 -18 -44 -18s-32 6 -44 18s-18 26.333 -18 43c0 17.333 6 32.166 18 44.499s26.667 18.5 44 18.5zM294 868l-0.000976562 -90.999
c-28.667 12.667 -48.667 19 -60 19c-12 0 -22.333 -3.16699 -31 -9.5s-15 -13.5 -19 -21.5s-7.16699 -18.833 -9.5 -32.5s-3.66602 -24.334 -3.99902 -32.001s-0.5 -18.167 -0.5 -31.5v-201h124v-84h-124v-384h-90v384h-41v84h41v228c0 122.667 50.333 184 151 184
c22 0 43 -4 63 -12z" />
    <glyph glyph-name="fl" unicode="&#xfb02;" horiz-adv-x="497" 
d="M431 868v-868h-90v868h90zM294 868l-0.000976562 -90.999c-28.667 12.667 -48.667 19 -60 19c-12 0 -22.333 -3.16699 -31 -9.5s-15 -13.5 -19 -21.5s-7.16699 -18.833 -9.5 -32.5s-3.66602 -24.334 -3.99902 -32.001s-0.5 -18.167 -0.5 -31.5v-201h124v-84h-124v-384
h-90v384h-41v84h41v228c0 122.667 50.333 184 151 184c22 0 43 -4 63 -12z" />
    <glyph glyph-name=".null" horiz-adv-x="0" 
 />
    <glyph glyph-name="nonmarkingreturn" horiz-adv-x="333" 
 />
    <glyph glyph-name="hyphen" horiz-adv-x="332" 
d="M57 358h219v-75h-219v75z" />
    <glyph glyph-name="oldcurrency" 
d="M483 546l60 -60l-41 -44c28 -44 42 -91.333 42 -142s-14 -98 -42 -142l41 -44l-60 -60l-46 44c-42 -32 -91.333 -48 -148 -48s-106 16 -148 48l-46 -44l-60 60l41 44c-28 44 -42 91.333 -42 142s14 98 42 142l-41 44l60 60l46 -44c42 32 91.333 48 148 48
s106 -16 148 -48zM289 130c48 0 88.998 16.667 122.998 50s51.333 73.333 52 120c0.666992 49.333 -15.666 90 -48.999 122s-75.333 48 -126 48s-92.667 -16 -126 -48s-49.666 -72.667 -48.999 -122c1.33301 -46.667 18.833 -86.667 52.5 -120s74.5 -50 122.5 -50z" />
    </font>
</defs>
</svg>
